<?xml version="1.0" encoding="UTF-8"?>
<svg id="Calque_1" data-name="Calque 1" xmlns="http://www.w3.org/2000/svg" xmlns:xlink="http://www.w3.org/1999/xlink" viewBox="0 0 3787.72 859.27">
  <defs>
    <style>
      .cls-1 {
        fill: #fff;
      }

      .cls-2 {
        fill: #0cb3e4;
      }

      .cls-3 {
        fill: url(#Dégradé_sans_nom_9);
      }
    </style>
    <linearGradient id="Dégradé_sans_nom_9" data-name="Dégradé sans nom 9" x1="3602.21" y1="493.19" x2="3193.42" y2="332.39" gradientUnits="userSpaceOnUse">
      <stop offset="0" stop-color="#7340c1"/>
      <stop offset=".25" stop-color="#04249c"/>
      <stop offset="1" stop-color="#0cb3e4"/>
    </linearGradient>
  </defs>
  <path class="cls-3" d="M2843.48,155.38h888.5c30.77,0,55.75,24.98,55.75,55.75v316.7c0,30.77-24.98,55.75-55.75,55.75h-888.5c-30.77,0-55.75-24.98-55.75-55.75V211.13c0-30.77,24.98-55.75,55.75-55.75Z"/>
  <g>
    <path class="cls-1" d="M2925.85,306.73v46.67h77.98v41.45h-77.98v85.04h-43.6v-214.91h134.47v41.75h-90.87Z"/>
    <path class="cls-1" d="M3180.67,438.13v41.75h-133.24v-214.91h43.59v173.15h89.65Z"/>
    <path class="cls-1" d="M3411.54,372.43c0,68.16-47.28,112.06-108.99,112.06s-108.99-43.9-108.99-112.06,47.28-112.06,108.99-112.06,108.99,43.9,108.99,112.06ZM3367.95,372.43c0-41.75-24.25-70.92-65.39-70.92s-65.39,29.17-65.39,70.92,24.25,70.92,65.39,70.92,65.39-29.17,65.39-70.92Z"/>
    <path class="cls-1" d="M3613.25,401.59l36.23-136.62h45.74l-62.02,214.91h-35.92l-40.83-129.56-40.83,129.56h-35.92l-62.01-214.91h45.74l36.23,136.62,39.91-136.62h33.77l39.91,136.62Z"/>
  </g>
  <g>
    <path class="cls-2" d="M290.14,0C130.16,0,0,130.16,0,290.14c0,246.37,184.75,441.62,241.37,495.59,16.9,16.11,66.3,65.48,100.18,72.61,2.25.58,4.59.92,7.01.92.22,0,.43-.03.64-.03.02,0,.03,0,.05,0,.33,0,.67,0,.99-.02l.03-.03c14.81-.9,26.71-13.32,26.72-28.33h0v-.02h0l-.05-342.31h1.29c57.32,0,110.14-25.21,148.72-70.99,33.4-39.63,53.34-91.99,53.34-140.06,0-68.65-31.01-138.55-85.08-191.76C439.05,30.44,366.22,0,290.14,0ZM378.23,453.68h-1.29l-.06-90.49c0-69.11-56.22-125.33-125.33-125.33s-125.33,56.22-125.33,125.33,56.22,125.33,125.33,125.33h90.58v332.79c-24.59-13.03-92.46-65.26-163.51-157.66-65.59-85.3-143.78-219.34-143.78-373.51,0-140.78,114.53-255.31,255.3-255.31,66.88,0,131.03,26.89,180.63,75.7,47.46,46.71,74.68,107.55,74.68,166.94,0,72.02-59.55,176.21-167.22,176.21ZM342.1,453.68h-90.55c-49.9,0-90.5-40.6-90.5-90.49s40.6-90.5,90.5-90.5,90.49,40.6,90.49,90.51l.06,90.48Z"/>
    <path class="cls-2" d="M977.7,287.57c-10.73-10.76-23.81-19.33-39.24-25.69-15.44-6.36-32.97-9.55-52.6-9.55s-36.98,3.19-52.29,9.55c-15.31,6.37-28.35,14.93-39.11,25.69-10.76,10.76-18.99,23.27-24.67,37.51-5.68,14.25-8.52,29.41-8.52,45.47s2.84,31.45,8.52,45.69c5.68,14.25,13.9,26.76,24.67,37.52,10.76,10.76,23.79,19.32,39.11,25.69,15.31,6.37,32.74,9.55,52.29,9.55s37.15-3.18,52.6-9.55c15.44-6.37,28.52-14.93,39.24-25.69,10.73-10.76,18.9-23.31,24.53-37.63,5.63-14.33,8.44-29.52,8.44-45.58s-2.82-31.22-8.44-45.47c-5.63-14.24-13.81-26.75-24.53-37.51ZM935.54,393.23c-2.65,6.88-6.29,12.95-10.92,18.22-4.62,5.27-10.31,9.39-17.05,12.38-6.75,2.98-14.14,4.47-22.17,4.47s-15.31-1.49-21.83-4.47c-6.52-2.98-12.09-7.1-16.71-12.38-4.62-5.28-8.18-11.38-10.69-18.33-2.5-6.95-3.75-14.47-3.75-22.57s1.25-15.2,3.75-22.23c2.5-7.03,6.06-13.13,10.69-18.33,4.62-5.19,10.19-9.32,16.71-12.38,6.52-3.05,13.79-4.58,21.83-4.58s15.61,1.53,22.28,4.58c6.67,3.06,12.31,7.19,16.93,12.38,4.62,5.2,8.26,11.31,10.92,18.33,2.65,7.03,3.98,14.44,3.98,22.23,0,8.25-1.33,15.81-3.98,22.68Z"/>
    <path class="cls-2" d="M1262.57,278.47c-6.22-7.43-14.33-13.56-24.33-18.41-10-4.85-22.74-7.28-38.2-7.28-17.73,0-32.96,3.34-45.7,10.01-12.73,6.67-22.2,16.07-28.42,28.19v-32.51h-71.16v224.4h71.16v-112.77c0-17.27,3.6-31.04,10.8-41.26,7.2-10.24,18.22-15.35,33.08-15.35s24.7,5.11,30.47,15.35c5.76,10.23,8.64,23.23,8.64,38.99v115.04h71.16v-133.23c0-16.06-1.13-29.78-3.41-41.15-2.27-11.37-6.97-21.37-14.09-30.01Z"/>
    <path class="cls-2" d="M1525.46,283.82c-10.09-9.78-22.34-17.47-36.75-23.08-14.42-5.6-30.64-8.41-48.7-8.41s-35.63,3.11-50.21,9.32c-14.59,6.22-26.91,14.67-36.95,25.35-10.05,10.69-17.6,23.15-22.67,37.4-5.07,14.24-7.59,29.63-7.59,46.15s2.61,31.98,7.82,46.38c5.22,14.4,12.93,26.98,23.13,37.74,10.21,10.76,22.83,19.17,37.86,25.23,15.04,6.06,32.31,9.1,51.81,9.1,16.23,0,30.8-2.05,43.69-6.14,12.89-4.09,23.97-9.62,33.23-16.59,9.25-6.97,16.8-15.08,22.64-24.33,5.84-9.24,9.67-19.16,11.49-29.78h-70.03c-2.43,6.67-6.84,12.32-13.22,16.94-6.38,4.62-15.96,6.92-28.72,6.92-8.97,0-16.56-1.25-22.79-3.74-6.23-2.49-11.21-5.94-14.93-10.34-3.72-4.4-6.46-9.54-8.2-15.41-1.75-5.87-2.62-12.1-2.62-18.71h160.97c.91-6.21,1.51-10.91,1.82-14.09.3-3.18.45-6.97.45-11.37,0-15.61-2.73-30.16-8.19-43.66-5.46-13.48-13.24-25.12-23.33-34.89ZM1393.74,346.91c0-13.37,4.44-23.65,13.33-30.83,8.89-7.19,20.02-10.78,33.39-10.78s25.26,3.73,33.84,11.2c8.58,7.47,12.88,17.6,12.88,30.41h-93.44Z"/>
    <path class="cls-2" d="M1823.77,286.54c-9.62-10.38-20.88-18.6-33.76-24.66-12.89-6.06-26.75-9.09-41.61-9.09-17.73,0-32.82,3.72-45.24,11.14-12.43,7.42-21.45,16.29-27.06,26.6v-32.06h-71.16v286.56h71.16v-94.22c5.6,10.15,14.63,18.98,27.06,26.49,12.43,7.5,27.51,11.25,45.24,11.25,14.85,0,28.72-3.03,41.61-9.09,12.88-6.06,24.14-14.33,33.76-24.78,9.62-10.46,17.17-22.88,22.62-37.29,5.45-14.4,8.18-30.01,8.18-46.83s-2.73-32.24-8.18-46.72c-5.46-14.47-13-26.9-22.62-37.29ZM1779.44,392.83c-2.66,6.98-6.33,13-11.03,18.08-4.7,5.08-10.31,9.17-16.82,12.28-6.52,3.11-13.79,4.66-21.82,4.66s-15.31-1.55-21.83-4.66c-6.52-3.1-12.13-7.2-16.82-12.28-4.7-5.07-8.38-11.14-11.03-18.19-2.66-7.05-3.98-14.44-3.98-22.17s1.32-15.08,3.98-22.06c2.65-6.97,6.33-13.03,11.03-18.18,4.7-5.15,10.31-9.25,16.82-12.28,6.52-3.03,13.79-4.55,21.83-4.55s15.31,1.51,21.82,4.55c6.52,3.03,12.12,7.13,16.82,12.28,4.7,5.15,8.37,11.22,11.03,18.18,2.65,6.97,3.98,14.32,3.98,22.06s-1.33,15.31-3.98,22.28Z"/>
    <path class="cls-2" d="M2065.09,290.52c-6.2-10.92-15.46-19.93-27.79-27.06-12.33-7.12-26.88-10.69-43.67-10.69-15.06,0-29.06,3.03-41.99,9.09-12.93,6.06-24.22,14.29-33.88,24.66-9.66,10.39-17.19,22.78-22.59,37.18-5.4,14.4-8.1,30.01-8.1,46.84s2.7,32.43,8.1,46.83c5.4,14.4,12.93,26.83,22.59,37.29,9.66,10.46,20.99,18.72,34,24.78,13.01,6.06,26.96,9.09,41.87,9.09,17.24,0,32.06-3.64,44.47-10.91,12.4-7.27,21.4-16.06,26.99-26.37v31.6h71.16v-224.4h-71.16v32.06ZM2061.12,392.83c-2.65,6.98-6.28,13-10.89,18.08-4.61,5.08-10.21,9.17-16.79,12.28-6.58,3.11-13.88,4.66-21.89,4.66s-15.28-1.55-21.78-4.66c-6.51-3.1-12.06-7.2-16.68-12.28-4.61-5.07-8.24-11.14-10.89-18.19-2.64-7.05-3.97-14.44-3.97-22.17s1.32-15.01,3.97-21.83c2.65-6.82,6.28-12.88,10.89-18.19,4.61-5.3,10.17-9.47,16.68-12.5,6.5-3.03,13.76-4.55,21.78-4.55s15.5,1.51,22.01,4.55c6.5,3.03,12.06,7.2,16.67,12.5,4.61,5.31,8.24,11.37,10.89,18.19,2.64,6.82,3.97,14.09,3.97,21.83s-1.32,15.31-3.97,22.28Z"/>
    <path class="cls-2" d="M2293.57,266.76c-12.28,8.11-21.07,17.47-26.38,28.08v-36.37h-71.16v224.4h71.16v-87.53c0-27.59,5.91-47.06,17.73-58.43,11.82-11.37,27.81-17.05,47.97-17.05,4.39,0,8.3.27,11.71.8,3.41.53,7.62,1.4,12.62,2.62v-64.8c-5.91-2.58-12.73-3.87-20.46-3.87-16.52,0-30.92,4.06-43.2,12.16Z"/>
    <polygon class="cls-2" points="2615.03 258.46 2530.46 258.46 2460.89 353.5 2460.89 156.84 2389.73 156.84 2389.73 482.86 2460.89 482.86 2460.89 388.73 2530.01 482.86 2614.58 482.86 2527.5 370.55 2615.03 258.46"/>
  </g>
</svg>