<svg width="659" height="628" viewBox="0 0 659 628" fill="none" xmlns="http://www.w3.org/2000/svg">
<path d="M4.83044e-06 313.356C65 194.356 193.5 154.5 317.5 279.356L317.5 353.856C192.502 486.356 62.002 415.856 4.83044e-06 313.356Z" fill="url(#paint0_linear_816_36)"/>
<path d="M298.658 317.5C144.658 465.5 257.825 586.167 333.658 628C510.058 513.598 433.492 373.333 373.158 317.5C505.658 192.502 435.158 62.002 332.658 0C213.658 65 174.158 215 298.658 317.5Z" fill="url(#paint1_linear_816_36)"/>
<path d="M658.5 316.356C593.5 197.356 443.5 157.856 341 282.356L330 317.5C449 513 596.498 418.857 658.5 316.356Z" fill="url(#paint2_linear_816_36)"/>
<path d="M332.757 0C435.257 62.002 505.757 192.502 373.257 317.5H329.998C291 256.5 281.5 249 229 217C229.062 217.222 229.124 217.444 229.187 217.666C204.525 133.812 248.903 45.8029 332.757 0ZM257.497 274.271C272.463 294.65 289.007 309.444 299.498 317.5H298.757C282.154 303.831 268.468 289.316 257.497 274.271Z" fill="url(#paint3_linear_816_36)"/>
<defs>
<linearGradient id="paint0_linear_816_36" x1="116" y1="283.5" x2="264.5" y2="395.999" gradientUnits="userSpaceOnUse">
<stop stop-color="#FFC731"/>
<stop offset="1" stop-color="#FF7711"/>
</linearGradient>
<linearGradient id="paint1_linear_816_36" x1="414" y1="77" x2="296.5" y2="554" gradientUnits="userSpaceOnUse">
<stop stop-color="#FF9718"/>
<stop offset="0.475962" stop-color="#FF5709"/>
<stop offset="1" stop-color="#FF9718"/>
</linearGradient>
<linearGradient id="paint2_linear_816_36" x1="607" y1="254.499" x2="383.5" y2="361.5" gradientUnits="userSpaceOnUse">
<stop stop-color="#FFC731"/>
<stop offset="1" stop-color="#FF7711"/>
</linearGradient>
<linearGradient id="paint3_linear_816_36" x1="271.499" y1="51.5" x2="415.999" y2="264.5" gradientUnits="userSpaceOnUse">
<stop stop-color="#FFC731"/>
<stop offset="1" stop-color="#FF7711"/>
</linearGradient>
</defs>
</svg>
