<svg width="400" height="294" viewBox="0 0 400 294" fill="none" xmlns="http://www.w3.org/2000/svg">
<path d="M135.333 16.9333C135.867 22.9333 135.6 24.2667 133.333 25.6C131.867 26.5333 130.667 28 130.667 28.8C126.41 33.879 119.531 47.803 113.05 49.3333C99.8947 59.1677 105.24 56.2883 105.333 66.8C105.333 68.9333 106 70.6667 106.667 70.6667C109.641 73.495 106.958 77.2086 104.4 77.6C99.33 71.1377 89.946 81.2896 97.2 85.3333C99.4667 86.5333 99.6 87.2 98.4 90.6667C94.8105 99.099 91.8771 98.4244 87.2 103.6C79.3334 112.533 79.8667 112.4 76.2667 109.067C74 106.933 72.8 106.533 72.4 107.6C65.9679 113.782 31.8466 113.158 33.8667 122.133C35.6058 126.81 30.0933 125.217 30 122.4C28.0931 112.827 24.3822 121.267 19.8667 121.333C17.6 121.333 14.9334 122.133 13.8667 123.2C9.99605 128.585 14.0869 126.96 14.1334 131.333C13.8158 134.69 11.9459 135.885 12.5334 138.8C13.0667 141.333 12.5334 143.867 11.2 146C6.83668 152.376 8.39792 157.583 15.6 159.067C18 159.467 21.0667 161.067 22.4 162.4C24.693 164.693 26.3601 168.774 25.8635 170.177C25.7537 170.487 25.5381 170.667 25.2 170.667C22.5356 173.175 24.9485 179.669 27.6 175.6C28.2667 174.533 28.9334 175.6 29.3334 178.667C29.8667 182 29.3334 184 27.7334 185.6C24.5627 188.958 26.7358 199.346 21.8667 200C18.8997 201.402 18.8652 205.196 16.1334 206.667C14.0175 208.854 14.2331 212.889 12.1334 214.133C10.2667 212.933 6.40004 219.733 7.33337 222.667C7.65214 225.815 5.36718 227.864 5.33337 230.8C5.33337 234 6.40004 235.467 11.2 238.4C25.764 246.804 20.6765 254.456 36.6667 249.467C44.5334 246.8 47.8667 247.067 49.7334 250.267C55.0178 254.919 54.6237 248.806 57.6 249.067C58.5334 250 63.6 250.667 70.4 250.667C84.6688 251.039 79.3885 246.437 79.8667 237.467C81.6051 232.052 89.4783 236.063 94 238.4C96.1334 239.6 100.133 240.667 102.667 240.933C115.443 241.236 112.339 248.881 122.267 248.267C129.867 247.733 131.6 248.667 134.8 255.2C136.8 259.467 140 261.333 140 258.267C143.904 252.563 148.542 256.994 153.2 258C165.141 262.285 159.288 261.548 158.4 267.333C157.867 270.133 158.267 270.8 161.2 271.467C168.267 273.067 174.133 276.667 176 280.667C178.533 285.733 182.533 286.4 186.933 282.267C195.185 269.027 217.848 290.647 220.667 286.533C221.2 285.867 223.6 285.6 226.267 286.133C230.267 286.933 230.8 286.667 230.533 284.533C230.004 279.363 244.767 274.728 249.467 274C255.2 273.2 256.533 273.467 258 275.6C262.392 279.586 269.879 277.95 266 272.533C263.223 264.914 259.118 266.641 258.133 259.067C257.2 251.867 258 224.133 259.333 218C260.667 212 269.2 200 276 194.933C286.412 187.502 290.323 194.239 297.733 185.867C300.533 182.667 303.467 180 304 180C305.333 180 314.933 173.733 316 172.133C316.4 171.6 319.333 169.2 322.533 166.933C326.667 163.867 329.867 162.667 333.467 162.667C342.092 162.777 335.39 168.888 341.867 171.2C347.183 173.168 351.747 166.061 356.267 163.067C364.533 157.6 365.333 156.667 363.467 155.2C361.333 153.733 361.467 153.333 364.667 150.133C375.23 142.795 375.85 151.006 377.867 136.533C379.215 124.756 377.981 132.488 387.2 122.667C393.2 116.4 393.333 116 391.333 112.933C390.267 111.2 387.867 108.533 386 106.933C383.333 104.667 382.667 102.933 382.933 98.5333C383.302 89.915 375.016 85.4454 369.467 81.7333C359.501 77.1426 363.911 85.3585 360.86 85.3333C358.219 84.9258 360.651 80.7789 358.667 79.3333C356.933 78.2667 349.333 82.8 349.333 84.9333C349.333 85.8667 349.067 86.6667 348.667 86.6667C347.467 86.6667 340.8 82.2667 339.867 80.8C339.333 80.1333 337.6 80 336 80.4C333.2 81.0667 333.067 80.8 333.733 76.5333C334.4 72.9333 333.867 71.2 331.333 68.6667C329.733 66.8 327.867 63.2 327.467 60.6667C326.933 58.1333 325.733 55.6 324.8 55.0667C322.4 53.7333 320.267 45.7333 320.667 40.1333C320.977 34.8219 317.003 36.1884 313.867 32.5333C311.733 30.1333 309.067 28 308 28C306.933 28 305.2 26.8 304.267 25.3333C303.333 23.8666 301.733 22.6667 300.533 22.6667C299.333 22.6667 298.133 23.8666 297.733 25.3333C297.333 26.8 295.867 28.1333 294.533 28.1333C289.447 29.3261 288.229 25.9932 287.2 22.1333C283.758 3.61551 275.172 23.8033 267.931 22.1251C263.674 20.0757 261.333 22 261.333 25.4666C261.333 26.9333 260.738 27.7186 260.133 28C258.803 28.6192 257.6 32.2666 256 37.4667C253.2 46.2666 252.667 46.8 251.067 44.5333C249.867 42.9333 249.467 40.2666 249.867 37.7333C250.4 34.2666 249.867 33.0667 247.867 32C246.533 31.2 244.933 29.0667 244.533 27.3333C244 24.9333 242.8 24 240.533 24C238.4 24 237.333 23.2 237.333 21.6C237.333 20.2667 236.667 18.5333 235.867 17.7333C228.499 16.9459 224.73 31.8768 222.125 34.2403C221.059 35.1736 220 35.7333 220 36.8C220 37.7333 218.667 40.5333 217.067 43.0667C214.533 46.8 213.2 47.6 209.733 47.6C205.005 46.8004 198.139 43.6909 194.4 48.2666C192.375 49.2626 193.504 44.7955 191.867 43.0667C190.667 41.8667 190.667 40.4 191.867 37.2C193.2 33.3333 192.933 32.2666 190 28C189.307 26.2358 185.356 15.9151 185.333 14.6667C182.337 10.4492 173.719 11.9464 168.533 15.3333C164.133 18.1333 163.333 18 157.733 12C146.175 3.15475 134.13 4.29422 135.333 16.9333ZM157.6 14.2667C163.867 20 164 20 167.467 17.8666C188.267 8.40411 180.829 17.834 188 28C190.533 31.6 190.8 32.8 189.6 37.4667C188.533 41.7333 188.667 42.9333 190 43.4667C191.067 43.8667 191.6 44.9333 191.2 45.8667C190.681 48.6148 194.338 52.083 196.156 50.4C200.909 43.9539 204.327 49.2897 209.467 49.3333C213.867 49.3333 214.119 48.0226 216.667 45.3333C219.157 42.8172 220 36.8 223.333 34.6667C224.4 33.7333 224.325 32.4368 225.333 30.2667C227.188 25.0894 236.701 12.5276 236 22.6667C236.282 25.8288 236.695 25.5162 239.067 25.8666C241.733 25.3333 242.533 25.8666 244 29.2C244.933 31.4667 244.963 33.0677 246.667 33.3333C248.888 33.6796 248 36 248.267 39.3333C248.667 42.6667 249.64 44.7654 250.706 45.9654C252.173 47.8321 252.519 48.4724 254.8 45.0667C256.133 42.6667 257.6 38.4 258 35.7333C258.533 33.0667 259.424 29.9122 260.49 28.9789C261.557 28.1788 262.407 26.5078 262.667 25.2C263.668 20.1564 264.125 23.3204 268.002 23.8749C277.613 24.8278 280.73 7.67111 285.067 21.6C287.867 30.6667 289.467 32.2666 294.4 30.4C296.667 29.4666 298.8 27.7333 299.2 26.2667C302.778 20.3698 301.722 29.2856 305.6 29.3333C307.467 29.3333 310.533 31.3333 313.2 34C315.653 36.9035 319.538 37.3279 319.067 40.5333C318.267 44.8 321.067 54.6667 323.333 55.4667C324.4 55.8667 325.6 58.4 326.133 61.0667C326.667 63.8667 328.133 67.3333 329.6 68.8C332.733 71.9531 331.648 75.5273 331.867 79.2C332 82.4 332.4 82.8 334.933 82.2667C336.933 81.7333 339.333 82.5333 342.133 84.6667C347.467 88.8 349.6 88.8 351.333 85.0667C352.133 83.6 354 81.7333 355.6 81.2C360.525 79.8791 356.827 85.9384 360.667 86C364.324 86.163 361.893 81.4218 364.533 81.3333C370.652 84.1012 381.961 90.4498 381.867 97.6C382.114 100.305 382.667 108 384.667 108C385.733 108 387.333 109.333 388.133 110.933C393.077 117.528 390.448 118.523 382.8 124.533C376.029 124.995 376.94 138.762 376 139.333C375.333 139.733 374.667 141.6 374.667 143.467C371.516 150.708 367.83 141.763 362.533 150.133C360.267 153.867 359.867 155.333 361.2 155.733C362.4 156.133 361.733 157.333 359.2 159.6C353.787 162.247 350.633 164.1 346.667 168C335.786 173.034 342.966 162.422 334.267 161.6C328.8 161.067 320.267 165.2 315.333 170.667C313.867 172.267 309.867 175.067 306.533 176.8C303.067 178.533 298.533 182 296.4 184.533C293.2 188.4 291.733 189.2 288 189.067C278.667 188.8 267.6 197.867 260.667 211.333C256.933 218.8 256.8 220 256.267 240.8L255.733 262.533L259.2 266C261.2 268 263.733 270.933 264.8 272.8C268.417 277.729 260.743 276.536 258.8 274.133C256.933 272 249.6 270.533 248.533 272.267C244.336 274.194 227.523 278.561 228.667 282.533C229.2 284.533 228.4 284.8 222.4 284.8C214.78 285.807 214.729 281.453 210.267 280C209.333 280 206.933 279.067 204.667 277.867C199.6 275.2 191.333 276.533 186.267 280.8C181.333 284.933 178.933 284.8 177.333 280.533C179.292 259.181 178.37 279.833 170.262 273.242C169.185 272.005 167.758 272.113 166.08 271.55C155.907 265.554 166.797 265.342 160.533 259.333C158.533 257.467 155.333 256 153.2 256C148.635 255.477 141.568 251.526 139.067 256.4C138 258.933 137.467 258.533 134.8 252.933C131.583 245.114 131.325 246.667 123.2 246.667C111.682 246.358 114.076 241.585 104.267 239.333C100 238.4 93.4667 236.4 89.4667 234.8C84.4 232.933 81.7334 232.533 80.5334 233.467C78.2667 235.333 76.9877 242.686 78.4708 244.858C81.5898 251.793 59.6198 248.249 59.3334 248C54.9904 244.898 53.354 253.762 50.1334 248.667C45.4568 244.896 32.4491 248.907 29.4667 249.733C26.9459 251.327 21.1145 245.31 20.6667 243.867C20.1334 242.4 18.8 240.667 17.6 240.267C13.5767 238.498 1.827 230.929 8.13337 226.667C10.2629 222.922 8.89371 217.549 13.6 215.6C14.9334 215.2 16 213.467 16 212C16 208.8 21.2 201.333 23.3334 201.333C24.9334 201.333 28.4 192.533 28 190C28.2923 183.712 31.3536 186.239 30.8 180C30.2667 172.933 30 172.4 27.3334 174.667C24.3632 176.704 25.1179 173.024 26.6667 172C28.6667 172 28.2667 169.467 25.2 163.467C22.8 158.533 21.8667 157.867 17.8667 157.733C5.02054 155.298 11.916 154.042 12 148.533C13.5934 142.691 17.8075 132.467 14.4 127.067C15.2294 121.399 21.6957 124.52 24.6667 121.333C26.9334 118.8 28.6295 118.583 28.5334 121.467C29.0666 127.192 36.799 128.841 35.3334 122.8C36.7328 109.377 65.6667 121.316 72.6667 109.2C73.3334 108.267 74.8 108.933 76.9334 110.933C81.3703 116.048 81.5473 112.409 85.4667 108C90.6953 103.555 97.9322 97.3298 99.8667 91.6C100.8 88.1333 100.533 86.9333 98.5334 85.2C91.8305 76.1222 100.373 78.7151 106.133 78.6667C110.411 78.2359 110.383 72.7726 108.133 69.8667C103.536 63.3577 109.232 53.1376 113.2 51.776C120.074 49.7627 128.401 36.5009 132 30.5333C132 29.7333 133.467 27.8666 135.333 26.4C137.2 24.9333 138.267 23.2 137.867 22.4C137.333 21.6 136.8 18.6667 136.667 15.8666C136.352 1.65289 153.285 10.2921 157.6 14.2667Z" fill="url(#paint0_linear_38_12)"/>
<path d="M216.926 283.933C215.962 283.516 214.592 282.617 213.881 281.936C213.169 281.255 211.126 280.168 209.341 279.521C207.556 278.873 205.385 277.976 204.518 277.527C199.649 275.01 191.358 276.444 185.883 280.751C184.91 281.516 183.256 282.551 182.206 283.052L180.298 283.962L178.823 282.311C177.984 281.373 177.449 280.297 177.582 279.818C177.71 279.355 177.967 276.949 178.151 274.472L178.487 269.969L176.65 272.095C174.47 274.62 172.918 274.837 170.388 272.971C169.455 272.283 168.33 271.72 167.887 271.72C167.444 271.72 166.03 271.054 164.746 270.239C162.174 268.608 161.403 266.913 162.318 264.904C163.216 262.932 162.992 261.872 161.259 259.899C159.612 258.022 155.428 255.721 153.649 255.712C153.112 255.71 150.682 255.219 148.25 254.623C142.834 253.294 140.702 253.631 139.059 256.075C137.751 258.022 137.783 258.052 134.635 251.878C132.904 248.483 131.951 247.162 130.952 246.775C130.211 246.487 126.903 246.183 123.6 246.098C117.067 245.93 117.6 246.11 110.204 241.569C108.603 240.587 105.705 239.412 103.699 238.932C101.709 238.457 96.435 236.857 91.9786 235.378C87.5222 233.899 83.2038 232.688 82.3821 232.688C79.2937 232.688 77.5115 237.017 77.9911 243.353L78.287 247.262L76.5649 247.982C74.6354 248.788 66.0627 248.928 62.3005 248.215C61.062 247.98 59.2153 247.628 58.1967 247.433C56.5823 247.123 56.0815 247.286 54.2925 248.703L52.2402 250.328L51.1404 249.327C48.9891 247.369 47.6426 246.972 43.2851 247.013C40.4374 247.039 37.2497 247.5 33.6396 248.407C30.5325 249.188 27.792 249.617 27.1724 249.42C25.5932 248.919 21.3137 244.749 20.2612 242.686C19.6457 241.48 18.4834 240.431 16.6806 239.457C8.52034 235.044 5.02357 230.343 7.74632 227.445C8.29124 226.865 9.18265 224.598 9.72723 222.409C10.7224 218.407 10.9402 218.083 14.6728 215.066C15.2572 214.593 15.8698 213.58 16.034 212.814C17.003 208.295 20.2974 203.02 22.9469 201.745C23.7116 201.377 24.7763 200.364 25.3127 199.493C26.6078 197.391 28.273 191.972 28.273 189.858C28.273 188.928 28.9682 186.841 29.8178 185.22C31.3438 182.309 31.3566 182.222 30.8646 178.153C30.5906 175.887 30.1371 173.803 29.8568 173.523C29.5107 173.177 28.7728 173.368 27.559 174.118C25.8558 175.171 25.7709 175.178 25.7709 174.272C25.7709 173.749 26.3542 172.813 27.0672 172.194C28.6855 170.786 28.5376 169.996 25.4891 163.76C23.1579 158.991 21.7497 157.628 19.1546 157.628C17.5518 157.628 11.2841 155.851 10.6501 155.217C10.293 154.86 10.4522 153.872 11.1627 152.035C13.1201 146.976 15.4256 137.85 15.6595 134.236C15.8011 132.049 15.6353 129.686 15.2416 128.28C14.6083 126.018 14.6276 125.916 15.8948 124.826C16.6998 124.133 18.2201 123.569 19.8594 123.354C22.5044 123.006 24.0945 122.267 25.9857 120.505C27.3392 119.244 27.9213 119.574 28.3993 121.875C28.9431 124.492 31.0059 126.602 33.0204 126.602C35.0788 126.602 35.779 125.809 35.779 123.475C35.779 117.796 40.984 115.64 54.7944 115.599C63.1637 115.574 69.0505 113.904 71.7966 110.777C72.6118 109.848 73.5034 109.088 73.7779 109.088C74.0523 109.088 75.4178 110.102 76.8123 111.34C78.2068 112.579 79.7794 113.592 80.3069 113.592C80.845 113.592 82.1009 112.563 83.1675 111.249C84.2133 109.96 86.0823 108.002 87.3208 106.898C92.7303 102.075 97.8248 96.437 99.0657 93.9007C101.028 89.8906 100.936 87.8028 98.6694 84.8339C94.8062 79.7744 95.6649 78.3071 102.234 78.7432C106.859 79.0502 108.432 78.6017 109.283 76.7334C110.205 74.7103 109.92 72.6741 108.273 69.5079C106.856 66.7869 106.729 66.1762 106.946 63.1442C107.325 57.8525 109.805 53.8343 113.998 51.7185C117.121 50.1429 119.293 48.3245 122.515 44.5878C125.015 41.6889 132.357 31.0113 132.357 30.2755C132.357 30.0465 133.731 28.4286 135.41 26.6801C137.653 24.3443 138.369 23.2713 138.112 22.6344C137.36 20.7761 136.731 15.1098 137.074 13.2823C137.283 12.1683 138.062 10.7315 138.925 9.86861C140.363 8.43092 140.544 8.38677 144.069 8.61299C148.818 8.91781 153.715 11.2861 158.879 15.7753C160.943 17.5699 163.111 19.1633 163.697 19.3161C164.315 19.4773 165.786 19.0872 167.2 18.3868C173.663 15.1861 178.926 13.6954 180.89 14.5091C182.516 15.1826 182.997 16.0376 184.547 21.017C185.19 23.0812 186.677 26.3463 187.851 28.2729C190.201 32.1261 190.084 30.9667 189.068 40.3398C188.834 42.5003 188.943 43.0072 189.769 43.5925C190.383 44.0277 190.858 45.1238 191.045 46.5369C191.253 48.1053 191.74 49.1296 192.653 49.9146C194.428 51.441 195.206 51.3401 197.476 49.2899C199.75 47.2355 201.017 47.1118 205.166 48.5393C212.21 50.9626 215.337 49.2359 219.665 40.5328C220.692 38.4686 222.155 36.1042 222.917 35.2785C223.679 34.4529 224.717 32.6644 225.223 31.3042C226.974 26.5956 232.673 19.0154 234.461 19.0154C235.23 19.0154 235.941 20.8756 235.941 22.8856C235.941 25.4087 236.637 26.021 239.503 26.021C241.632 26.021 241.961 26.1809 242.845 27.6474C243.385 28.5418 244.079 30.0618 244.389 31.0251C244.721 32.06 245.536 33.1088 246.381 33.5888C247.715 34.3465 247.828 34.6566 248.055 38.2008C248.426 43.9831 251.13 48.6132 253.33 47.2352C254.756 46.3424 256.858 41.6058 257.989 36.7381C258.57 34.2383 259.581 31.3109 260.236 30.2329C261.521 28.1173 262.537 26.0818 263.407 23.8794C263.943 22.5216 263.991 22.5067 265.436 23.2539C267.352 24.2446 270.609 24.2314 272.555 23.2252C273.4 22.7883 275.522 21.0995 277.271 19.4721C279.021 17.8448 280.903 16.5133 281.455 16.5133C282.588 16.5133 283.827 18.6508 285.224 23.0186C286.635 27.4306 288.436 30.4101 290.027 30.9649C292.885 31.9611 297.58 29.6248 299.6 26.2015C300.146 25.2766 300.798 24.5198 301.05 24.5198C301.301 24.5198 302.001 25.5371 302.605 26.7803C303.523 28.6684 304.036 29.1304 305.722 29.5843C308.001 30.1979 309.725 31.2941 313.047 34.2425C314.309 35.3628 316.085 36.846 316.993 37.5386C318.561 38.7345 318.652 38.981 318.79 42.4299C319.001 47.7148 320.726 53.0689 323.016 55.5501C324.42 57.07 325.166 58.5707 326.033 61.6172C326.745 64.1149 328.015 66.9279 329.352 68.9632C331.471 72.1898 331.519 72.3526 331.519 76.4463C331.519 82.107 331.817 82.5668 335.493 82.5668C338.194 82.5668 338.731 82.77 342.165 85.0897C344.219 86.4772 346.691 87.741 347.659 87.8981C349.333 88.1698 349.521 88.0453 351.526 85.3306C353.539 82.6055 356.049 80.9092 357.337 81.4035C357.668 81.5303 358.19 82.6321 358.497 83.8519C359.02 85.9313 359.161 86.0697 360.758 86.0697C362.314 86.0697 362.522 85.8869 363.181 83.9429C363.662 82.5249 364.177 81.8395 364.726 81.8861C366.036 81.9971 372.728 85.998 375.909 88.5718C379.648 91.5977 381.338 94.6929 381.781 99.3304C382.333 105.107 383.272 107.759 384.996 108.41C386.934 109.141 390.233 114.058 390.233 116.215C390.233 117.508 389.69 118.296 387.272 120.515C385.644 122.01 383.397 123.645 382.279 124.149C378.671 125.775 377.466 127.958 376.572 134.485C376.264 136.738 375.685 139.208 375.285 139.973C374.886 140.738 374.558 141.841 374.556 142.423C374.554 143.005 374.087 144.075 373.516 144.8C372.589 145.979 372.14 146.118 369.28 146.118C366.457 146.118 365.885 146.29 364.413 147.584C363.495 148.389 362.106 150.309 361.327 151.85C359.956 154.558 359.939 154.683 360.809 155.644C361.678 156.604 361.667 156.68 360.499 157.933C359.835 158.645 358.165 159.799 356.789 160.497C353.609 162.109 350.205 164.384 348.282 166.182C346.366 167.973 343.216 169.293 341.74 168.922C340.92 168.716 340.318 167.891 339.617 166.012C338.26 162.375 336.756 161.361 332.858 161.455C327.357 161.588 321.374 164.603 314.814 170.548C312.973 172.216 309.071 175.002 306.142 176.738C302.708 178.774 299.562 181.14 297.288 183.398C292.656 187.997 291.649 188.646 289.134 188.649C278.51 188.666 267.177 197.746 260.19 211.839C257.017 218.24 256.638 221.074 255.98 243.339L255.421 262.247L259.067 266.264C263.014 270.612 265.465 273.977 265.465 275.048C265.465 276.458 261.733 275.832 259.022 273.968C256.4 272.164 252.207 270.92 250.286 271.376C249.69 271.518 245.937 272.857 241.946 274.353C230.707 278.564 228.435 279.962 228.435 282.663C228.435 283.934 228.219 284.135 226.559 284.409C223.309 284.946 218.745 284.721 216.926 283.933Z" fill="#F8E7CD"/>
<path d="M206.152 202.226C208.078 202.226 209.64 200.532 209.64 198.442C209.64 196.352 208.078 194.658 206.152 194.658C204.226 194.658 202.664 196.352 202.664 198.442C202.664 200.532 204.226 202.226 206.152 202.226Z" fill="#1D5ADA"/>
<defs>
<linearGradient id="paint0_linear_38_12" x1="5.33337" y1="146.656" x2="392.49" y2="146.656" gradientUnits="userSpaceOnUse">
<stop stop-color="#EA3E29"/>
<stop offset="1" stop-color="#FFA700"/>
</linearGradient>
</defs>
</svg>
