<svg width="318" height="204" viewBox="0 0 318 204" fill="none" xmlns="http://www.w3.org/2000/svg">
<g clip-path="url(#clip0_189_95)">
<rect width="318" height="204" fill="white"/>
<rect width="318" height="204" fill="#FFF6E3"/>
<rect x="87" y="117" width="162" height="24" rx="12" fill="white"/>
<path d="M100.816 138.224C100.027 138.224 99.4293 137.968 99.024 137.456C98.64 136.944 98.448 136.293 98.448 135.504C98.448 134.608 98.6827 133.627 99.152 132.56C99.5787 131.6 100.123 130.725 100.784 129.936C101.467 129.147 102.203 128.517 102.992 128.048C103.781 127.557 104.539 127.312 105.264 127.312C106.139 127.312 106.779 127.579 107.184 128.112C107.589 128.645 107.792 129.317 107.792 130.128C107.792 131.003 107.568 131.941 107.12 132.944C106.885 133.456 106.544 134.011 106.096 134.608C105.648 135.205 105.136 135.781 104.56 136.336C103.984 136.891 103.365 137.349 102.704 137.712C102.064 138.053 101.435 138.224 100.816 138.224ZM101.424 137.584C101.872 137.584 102.32 137.435 102.768 137.136C103.216 136.816 103.643 136.432 104.048 135.984C104.453 135.536 104.805 135.088 105.104 134.64C105.424 134.171 105.659 133.776 105.808 133.456C106.171 132.773 106.437 132.123 106.608 131.504C106.779 130.864 106.864 130.309 106.864 129.84C106.864 128.816 106.48 128.304 105.712 128.304C105.243 128.304 104.741 128.496 104.208 128.88C103.696 129.243 103.195 129.733 102.704 130.352C102.213 130.971 101.787 131.664 101.424 132.432C100.656 133.968 100.272 135.216 100.272 136.176C100.272 136.944 100.517 137.392 101.008 137.52C101.072 137.541 101.136 137.563 101.2 137.584C101.264 137.584 101.339 137.584 101.424 137.584ZM104.458 149.136C104.415 149.307 104.33 149.296 104.202 149.104C104.052 148.933 103.924 148.645 103.818 148.24C103.711 147.835 103.658 147.387 103.658 146.896C103.658 146.512 103.7 146.16 103.786 145.84C104.02 144.837 104.372 143.696 104.842 142.416C105.311 141.157 105.844 139.845 106.442 138.48C107.018 137.136 107.626 135.813 108.266 134.512C108.906 133.189 109.524 131.973 110.122 130.864C110.74 129.755 111.295 128.837 111.786 128.112C112.575 126.896 113.258 126.043 113.834 125.552C114.41 125.04 114.911 124.72 115.338 124.592C115.786 124.464 116.18 124.368 116.522 124.304C115.22 125.925 113.972 127.685 112.778 129.584C111.604 131.483 110.41 133.637 109.194 136.048C109.748 135.195 110.356 134.267 111.018 133.264C111.7 132.24 112.404 131.28 113.13 130.384C113.834 129.509 114.527 128.784 115.21 128.208C115.914 127.611 116.5 127.312 116.97 127.312C117.588 127.312 118.004 127.493 118.218 127.856C118.452 128.219 118.57 128.645 118.57 129.136C118.57 129.819 118.431 130.576 118.154 131.408C117.876 132.219 117.482 133.051 116.97 133.904C116.479 134.736 115.892 135.515 115.21 136.24C114.548 136.944 113.823 137.531 113.034 138C113.78 137.829 114.452 137.616 115.05 137.36C115.647 137.104 116.244 136.752 116.842 136.304C117.439 135.835 118.09 135.216 118.794 134.448C119.028 134.213 119.263 133.957 119.498 133.68C119.754 133.381 119.967 133.115 120.138 132.88C120.202 132.816 120.255 132.784 120.298 132.784C120.426 132.784 120.49 132.88 120.49 133.072C120.49 133.2 120.447 133.307 120.362 133.392C120.148 133.669 119.892 133.979 119.594 134.32C119.316 134.64 119.05 134.949 118.794 135.248C118.047 136.016 117.226 136.699 116.33 137.296C115.455 137.872 114.452 138.309 113.322 138.608C112.554 138.8 111.711 138.896 110.794 138.896C110.602 138.896 110.41 138.885 110.218 138.864C110.026 138.864 109.844 138.853 109.674 138.832C109.375 138.811 109.087 138.725 108.81 138.576C108.532 138.448 108.383 138.192 108.362 137.808C107.359 139.899 106.57 141.904 105.994 143.824C105.418 145.765 104.906 147.536 104.458 149.136ZM110.058 138.288C110.719 138.288 111.412 138.011 112.138 137.456C112.884 136.901 113.578 136.187 114.218 135.312C114.879 134.416 115.423 133.456 115.85 132.432C116.084 131.899 116.298 131.291 116.49 130.608C116.703 129.904 116.81 129.339 116.81 128.912C116.81 128.485 116.692 128.272 116.458 128.272C116.18 128.272 115.818 128.485 115.37 128.912C114.943 129.339 114.378 129.957 113.674 130.768C113.439 131.045 113.14 131.429 112.778 131.92C112.436 132.411 112.074 132.933 111.69 133.488C111.327 134.021 110.996 134.523 110.698 134.992C110.399 135.461 110.175 135.824 110.026 136.08C109.898 136.315 109.759 136.592 109.61 136.912C109.482 137.211 109.418 137.477 109.418 137.712C109.418 138.096 109.631 138.288 110.058 138.288ZM121.949 138.48C121.16 138.48 120.531 138.256 120.061 137.808C119.592 137.339 119.357 136.688 119.357 135.856C119.357 135.216 119.475 134.544 119.709 133.84C119.965 133.136 120.211 132.581 120.445 132.176C120.936 131.28 121.523 130.459 122.205 129.712C122.909 128.965 123.624 128.368 124.349 127.92C125.096 127.451 125.779 127.216 126.397 127.216C126.973 127.216 127.464 127.376 127.869 127.696C128.296 128.016 128.509 128.443 128.509 128.976C128.509 129.189 128.456 129.435 128.349 129.712C128.243 129.989 128.072 130.277 127.837 130.576C126.984 131.664 126.035 132.517 124.989 133.136C123.965 133.733 122.792 134.181 121.469 134.48C121.384 134.757 121.309 135.035 121.245 135.312C121.181 135.568 121.128 135.813 121.085 136.048C121.064 136.155 121.043 136.261 121.021 136.368C121.021 136.453 121.021 136.549 121.021 136.656C121.021 137.083 121.117 137.392 121.309 137.584C121.523 137.755 121.779 137.84 122.077 137.84C122.547 137.84 123.048 137.723 123.581 137.488C124.115 137.232 124.616 136.944 125.085 136.624C125.555 136.304 125.907 136.048 126.141 135.856C126.376 135.643 126.6 135.429 126.813 135.216C127.048 134.981 127.304 134.725 127.581 134.448C127.795 134.213 127.997 133.989 128.189 133.776C128.381 133.541 128.563 133.307 128.733 133.072C128.797 133.008 128.851 132.976 128.893 132.976C129.021 132.976 129.085 133.072 129.085 133.264C129.085 133.371 129.043 133.467 128.957 133.552C128.573 134.021 128.189 134.491 127.805 134.96C127.421 135.408 127.027 135.845 126.621 136.272C126.152 136.763 125.501 137.253 124.669 137.744C123.859 138.235 122.952 138.48 121.949 138.48ZM121.661 134.064C122.216 133.829 122.856 133.488 123.581 133.04C124.328 132.592 125.043 132.059 125.725 131.44C126.429 130.8 127.005 130.117 127.453 129.392C127.603 129.157 127.677 128.944 127.677 128.752C127.677 128.453 127.507 128.304 127.165 128.304C126.931 128.304 126.643 128.389 126.301 128.56C125.235 129.136 124.317 129.915 123.549 130.896C122.781 131.877 122.152 132.933 121.661 134.064ZM126.54 138.192C127.457 136.485 128.215 134.843 128.812 133.264C129.431 131.664 130.135 130.053 130.924 128.432C131.159 128.005 131.457 127.717 131.82 127.568C132.183 127.397 132.535 127.312 132.876 127.312C133.153 127.312 133.399 127.344 133.612 127.408C133.548 127.557 133.377 127.856 133.1 128.304C132.844 128.731 132.567 129.221 132.268 129.776C132.055 130.16 131.735 130.757 131.308 131.568C130.881 132.357 130.487 133.179 130.124 134.032C130.316 133.797 130.615 133.413 131.02 132.88C131.425 132.347 131.895 131.771 132.428 131.152C132.961 130.512 133.516 129.904 134.092 129.328C134.689 128.731 135.265 128.251 135.82 127.888C136.396 127.504 136.908 127.312 137.356 127.312C137.697 127.312 137.996 127.419 138.252 127.632C138.508 127.845 138.636 128.133 138.636 128.496C138.636 129.029 138.412 129.659 137.964 130.384C137.516 131.088 137.068 131.781 136.62 132.464C136.535 132.592 136.375 132.837 136.14 133.2C135.927 133.563 135.692 133.979 135.436 134.448C135.18 134.896 134.956 135.333 134.764 135.76C134.593 136.165 134.508 136.485 134.508 136.72C134.508 136.955 134.604 137.072 134.796 137.072C135.201 137.072 135.617 136.912 136.044 136.592C136.492 136.272 136.919 135.909 137.324 135.504C137.729 135.077 138.049 134.725 138.284 134.448C138.519 134.192 138.732 133.947 138.924 133.712C139.116 133.477 139.308 133.253 139.5 133.04C139.564 132.976 139.617 132.944 139.66 132.944C139.788 132.944 139.852 133.04 139.852 133.232C139.852 133.36 139.809 133.467 139.724 133.552C139.489 133.829 139.255 134.117 139.02 134.416C138.785 134.693 138.54 134.971 138.284 135.248C138.049 135.525 137.804 135.803 137.548 136.08C137.313 136.336 137.068 136.581 136.812 136.816C135.895 137.669 135.041 138.096 134.252 138.096C133.719 138.096 133.356 137.936 133.164 137.616C132.993 137.296 132.908 136.901 132.908 136.432C132.908 135.92 133.047 135.365 133.324 134.768C133.601 134.171 133.943 133.563 134.348 132.944C134.753 132.304 135.159 131.685 135.564 131.088C135.991 130.491 136.343 129.947 136.62 129.456C136.897 128.944 137.036 128.517 137.036 128.176C137.036 128.048 136.961 127.984 136.812 127.984C136.684 127.984 136.428 128.144 136.044 128.464C135.681 128.763 135.287 129.125 134.86 129.552C134.433 129.957 134.028 130.352 133.644 130.736C133.281 131.12 133.036 131.397 132.908 131.568C132.375 132.144 131.852 132.763 131.34 133.424C130.849 134.085 130.38 134.725 129.932 135.344C129.676 135.707 129.452 136.08 129.26 136.464C129.068 136.827 128.855 137.211 128.62 137.616C128.513 137.808 128.364 137.925 128.172 137.968C128.001 137.989 127.767 138.011 127.468 138.032C127.255 138.032 127.084 138.032 126.956 138.032C126.828 138.053 126.689 138.107 126.54 138.192ZM141.579 138.48C140.747 138.48 140.075 138.267 139.563 137.84C139.051 137.413 138.795 136.741 138.795 135.824C138.795 135.184 138.891 134.523 139.083 133.84C139.296 133.136 139.509 132.581 139.723 132.176C140.171 131.28 140.715 130.459 141.355 129.712C141.995 128.965 142.667 128.368 143.371 127.92C144.096 127.451 144.768 127.216 145.387 127.216C146.005 127.216 146.485 127.429 146.827 127.856C147.168 128.261 147.339 128.709 147.339 129.2C147.339 129.627 147.221 129.989 146.987 130.288C146.688 130.693 146.432 130.981 146.219 131.152C146.005 131.323 145.845 131.408 145.739 131.408C145.632 131.408 145.579 131.333 145.579 131.184C145.579 131.056 145.632 130.853 145.739 130.576C145.781 130.448 145.867 130.224 145.995 129.904C146.123 129.584 146.24 129.264 146.347 128.944C146.453 128.624 146.496 128.411 146.475 128.304C146.155 128.24 145.696 128.421 145.099 128.848C144.523 129.253 143.925 129.797 143.307 130.48C142.688 131.141 142.176 131.845 141.771 132.592C141.685 132.763 141.536 133.083 141.323 133.552C141.109 134.021 140.917 134.533 140.747 135.088C140.576 135.621 140.491 136.123 140.491 136.592C140.491 136.955 140.576 137.264 140.747 137.52C140.917 137.755 141.205 137.872 141.611 137.872C141.952 137.872 142.357 137.787 142.827 137.616C143.637 137.36 144.384 136.933 145.067 136.336C145.771 135.739 146.421 135.109 147.019 134.448C147.232 134.213 147.435 133.989 147.627 133.776C147.819 133.563 148 133.349 148.171 133.136C148.213 133.093 148.245 133.061 148.267 133.04C148.309 132.997 148.341 132.976 148.363 132.976C148.469 132.976 148.523 133.061 148.523 133.232C148.523 133.381 148.48 133.509 148.395 133.616C148.181 133.893 147.957 134.171 147.723 134.448C147.488 134.725 147.253 135.003 147.019 135.28C146.315 136.069 145.515 136.805 144.619 137.488C143.744 138.149 142.731 138.48 141.579 138.48ZM149.079 138.128C148.375 138.128 147.885 137.957 147.607 137.616C147.33 137.275 147.191 136.859 147.191 136.368C147.191 135.728 147.341 135.045 147.639 134.32C147.959 133.595 148.237 133.029 148.471 132.624C149.047 131.707 149.73 130.832 150.519 130C151.309 129.168 152.141 128.496 153.015 127.984C153.911 127.451 154.765 127.184 155.575 127.184C156.002 127.184 156.418 127.259 156.823 127.408C157.229 127.536 157.623 127.76 158.007 128.08C158.199 128.229 158.327 128.379 158.391 128.528C158.477 128.656 158.519 128.773 158.519 128.88C158.519 129.2 158.381 129.36 158.103 129.36C157.911 129.36 157.773 129.232 157.687 128.976C157.41 128.251 156.962 127.888 156.343 127.888C155.81 127.888 155.202 128.133 154.519 128.624C153.837 129.115 153.165 129.701 152.503 130.384C151.778 131.152 151.117 131.984 150.519 132.88C149.922 133.755 149.474 134.555 149.175 135.28C149.026 135.6 148.919 135.888 148.855 136.144C148.813 136.379 148.791 136.581 148.791 136.752C148.791 137.136 148.951 137.328 149.271 137.328C149.634 137.328 150.167 137.061 150.871 136.528C151.383 136.123 151.906 135.632 152.439 135.056C152.994 134.48 153.506 133.915 153.975 133.36C154.445 132.784 154.818 132.336 155.095 132.016C155.202 131.845 155.298 131.685 155.383 131.536C155.49 131.387 155.586 131.259 155.671 131.152C155.757 131.045 155.895 130.96 156.087 130.896C156.301 130.832 156.514 130.8 156.727 130.8C156.983 130.8 157.197 130.843 157.367 130.928C157.538 131.013 157.57 131.163 157.463 131.376C157.463 131.397 157.346 131.621 157.111 132.048C156.877 132.453 156.599 132.944 156.279 133.52C155.981 134.096 155.714 134.651 155.479 135.184C155.351 135.483 155.245 135.76 155.159 136.016C155.074 136.272 155.031 136.485 155.031 136.656C155.031 136.933 155.138 137.072 155.351 137.072C155.501 137.072 155.725 136.987 156.023 136.816C156.493 136.581 156.962 136.24 157.431 135.792C157.922 135.344 158.37 134.885 158.775 134.416C159.01 134.181 159.223 133.957 159.415 133.744C159.607 133.531 159.789 133.307 159.959 133.072C160.023 133.008 160.077 132.976 160.119 132.976C160.247 132.976 160.311 133.072 160.311 133.264C160.311 133.371 160.269 133.467 160.183 133.552C159.949 133.829 159.714 134.117 159.479 134.416C159.245 134.693 158.999 134.971 158.743 135.248C158.509 135.525 158.263 135.803 158.007 136.08C157.773 136.336 157.527 136.581 157.271 136.816C156.354 137.669 155.511 138.096 154.743 138.096C154.402 138.096 154.114 137.979 153.879 137.744C153.645 137.488 153.527 137.093 153.527 136.56C153.527 136.155 153.602 135.696 153.751 135.184C153.794 134.949 153.858 134.715 153.943 134.48C154.05 134.245 154.146 134 154.231 133.744C153.805 134.427 153.314 135.109 152.759 135.792C152.226 136.453 151.65 137.008 151.031 137.456C150.413 137.904 149.762 138.128 149.079 138.128ZM163.87 138.16C163.465 138.16 163.123 138.021 162.846 137.744C162.569 137.467 162.43 137.072 162.43 136.56C162.43 136.325 162.451 136.112 162.494 135.92C162.537 135.707 162.59 135.525 162.654 135.376C162.761 135.056 162.963 134.64 163.262 134.128C163.561 133.616 163.891 133.083 164.254 132.528C164.617 131.952 164.926 131.44 165.182 130.992C165.502 130.437 165.662 129.957 165.662 129.552C165.662 129.104 165.47 128.752 165.086 128.496C164.937 128.389 164.787 128.293 164.638 128.208C164.489 128.101 164.361 128.005 164.254 127.92L163.358 129.36C162.846 130.064 162.313 130.789 161.758 131.536C161.203 132.283 160.67 132.976 160.158 133.616C159.646 134.235 159.209 134.757 158.846 135.184C158.782 135.248 158.718 135.28 158.654 135.28C158.547 135.28 158.462 135.227 158.398 135.12C158.334 135.013 158.345 134.917 158.43 134.832C159.262 133.893 160.062 132.933 160.83 131.952C161.598 130.971 162.313 129.925 162.974 128.816L163.742 127.504C163.657 127.44 163.518 127.301 163.326 127.088C163.155 126.875 162.985 126.64 162.814 126.384C162.665 126.107 162.59 125.872 162.59 125.68C162.59 125.509 162.643 125.381 162.75 125.296C162.878 125.189 163.091 125.136 163.39 125.136C164.115 125.136 164.467 125.915 164.446 127.472C164.745 127.707 165.075 127.888 165.438 128.016C165.801 128.144 166.142 128.272 166.462 128.4C166.803 128.507 167.081 128.667 167.294 128.88C167.507 129.093 167.614 129.413 167.614 129.84C167.614 130.203 167.507 130.629 167.294 131.12C167.102 131.589 166.867 132.005 166.59 132.368C166.355 132.688 166.078 133.072 165.758 133.52C165.459 133.968 165.171 134.416 164.894 134.864C164.617 135.312 164.414 135.717 164.286 136.08C164.179 136.357 164.126 136.56 164.126 136.688C164.126 136.965 164.254 137.104 164.51 137.104C164.745 137.104 165.033 137.008 165.374 136.816C165.822 136.581 166.281 136.251 166.75 135.824C167.241 135.376 167.689 134.917 168.094 134.448C168.329 134.213 168.542 133.989 168.734 133.776C168.926 133.541 169.107 133.307 169.278 133.072C169.342 133.008 169.395 132.976 169.438 132.976C169.566 132.976 169.63 133.072 169.63 133.264C169.63 133.371 169.587 133.467 169.502 133.552C169.054 134.085 168.595 134.651 168.126 135.248C167.657 135.824 167.155 136.347 166.622 136.816C166.302 137.072 165.886 137.36 165.374 137.68C164.862 138 164.361 138.16 163.87 138.16ZM171.454 138.48C170.622 138.48 169.95 138.267 169.438 137.84C168.926 137.413 168.67 136.741 168.67 135.824C168.67 135.184 168.766 134.523 168.958 133.84C169.171 133.136 169.384 132.581 169.598 132.176C170.046 131.28 170.59 130.459 171.23 129.712C171.87 128.965 172.542 128.368 173.246 127.92C173.971 127.451 174.643 127.216 175.262 127.216C175.88 127.216 176.36 127.429 176.702 127.856C177.043 128.261 177.214 128.709 177.214 129.2C177.214 129.627 177.096 129.989 176.862 130.288C176.563 130.693 176.307 130.981 176.094 131.152C175.88 131.323 175.72 131.408 175.614 131.408C175.507 131.408 175.454 131.333 175.454 131.184C175.454 131.056 175.507 130.853 175.614 130.576C175.656 130.448 175.742 130.224 175.87 129.904C175.998 129.584 176.115 129.264 176.222 128.944C176.328 128.624 176.371 128.411 176.35 128.304C176.03 128.24 175.571 128.421 174.974 128.848C174.398 129.253 173.8 129.797 173.182 130.48C172.563 131.141 172.051 131.845 171.646 132.592C171.56 132.763 171.411 133.083 171.198 133.552C170.984 134.021 170.792 134.533 170.622 135.088C170.451 135.621 170.366 136.123 170.366 136.592C170.366 136.955 170.451 137.264 170.622 137.52C170.792 137.755 171.08 137.872 171.486 137.872C171.827 137.872 172.232 137.787 172.702 137.616C173.512 137.36 174.259 136.933 174.942 136.336C175.646 135.739 176.296 135.109 176.894 134.448C177.107 134.213 177.31 133.989 177.502 133.776C177.694 133.563 177.875 133.349 178.046 133.136C178.088 133.093 178.12 133.061 178.142 133.04C178.184 132.997 178.216 132.976 178.238 132.976C178.344 132.976 178.398 133.061 178.398 133.232C178.398 133.381 178.355 133.509 178.27 133.616C178.056 133.893 177.832 134.171 177.598 134.448C177.363 134.725 177.128 135.003 176.894 135.28C176.19 136.069 175.39 136.805 174.494 137.488C173.619 138.149 172.606 138.48 171.454 138.48ZM178.954 138.128C178.25 138.128 177.76 137.957 177.482 137.616C177.205 137.275 177.066 136.859 177.066 136.368C177.066 135.728 177.216 135.045 177.514 134.32C177.834 133.595 178.112 133.029 178.346 132.624C178.922 131.707 179.605 130.832 180.394 130C181.184 129.168 182.016 128.496 182.89 127.984C183.786 127.451 184.64 127.184 185.45 127.184C185.877 127.184 186.293 127.259 186.698 127.408C187.104 127.536 187.498 127.76 187.882 128.08C188.074 128.229 188.202 128.379 188.266 128.528C188.352 128.656 188.394 128.773 188.394 128.88C188.394 129.2 188.256 129.36 187.978 129.36C187.786 129.36 187.648 129.232 187.562 128.976C187.285 128.251 186.837 127.888 186.218 127.888C185.685 127.888 185.077 128.133 184.394 128.624C183.712 129.115 183.04 129.701 182.378 130.384C181.653 131.152 180.992 131.984 180.394 132.88C179.797 133.755 179.349 134.555 179.05 135.28C178.901 135.6 178.794 135.888 178.73 136.144C178.688 136.379 178.666 136.581 178.666 136.752C178.666 137.136 178.826 137.328 179.146 137.328C179.509 137.328 180.042 137.061 180.746 136.528C181.258 136.123 181.781 135.632 182.314 135.056C182.869 134.48 183.381 133.915 183.85 133.36C184.32 132.784 184.693 132.336 184.97 132.016C185.077 131.845 185.173 131.685 185.258 131.536C185.365 131.387 185.461 131.259 185.546 131.152C185.632 131.045 185.77 130.96 185.962 130.896C186.176 130.832 186.389 130.8 186.602 130.8C186.858 130.8 187.072 130.843 187.242 130.928C187.413 131.013 187.445 131.163 187.338 131.376C187.338 131.397 187.221 131.621 186.986 132.048C186.752 132.453 186.474 132.944 186.154 133.52C185.856 134.096 185.589 134.651 185.354 135.184C185.226 135.483 185.12 135.76 185.034 136.016C184.949 136.272 184.906 136.485 184.906 136.656C184.906 136.933 185.013 137.072 185.226 137.072C185.376 137.072 185.6 136.987 185.898 136.816C186.368 136.581 186.837 136.24 187.306 135.792C187.797 135.344 188.245 134.885 188.65 134.416C188.885 134.181 189.098 133.957 189.29 133.744C189.482 133.531 189.664 133.307 189.834 133.072C189.898 133.008 189.952 132.976 189.994 132.976C190.122 132.976 190.186 133.072 190.186 133.264C190.186 133.371 190.144 133.467 190.058 133.552C189.824 133.829 189.589 134.117 189.354 134.416C189.12 134.693 188.874 134.971 188.618 135.248C188.384 135.525 188.138 135.803 187.882 136.08C187.648 136.336 187.402 136.581 187.146 136.816C186.229 137.669 185.386 138.096 184.618 138.096C184.277 138.096 183.989 137.979 183.754 137.744C183.52 137.488 183.402 137.093 183.402 136.56C183.402 136.155 183.477 135.696 183.626 135.184C183.669 134.949 183.733 134.715 183.818 134.48C183.925 134.245 184.021 134 184.106 133.744C183.68 134.427 183.189 135.109 182.634 135.792C182.101 136.453 181.525 137.008 180.906 137.456C180.288 137.904 179.637 138.128 178.954 138.128ZM190.961 138.128C190.257 138.128 189.766 137.957 189.489 137.616C189.212 137.275 189.073 136.859 189.073 136.368C189.073 135.728 189.222 135.045 189.521 134.32C189.841 133.595 190.118 133.029 190.353 132.624C190.929 131.707 191.612 130.832 192.401 130C193.19 129.168 194.022 128.496 194.897 127.984C195.793 127.451 196.646 127.184 197.457 127.184C198.012 127.184 198.556 127.312 199.089 127.568C199.196 127.333 199.292 127.131 199.377 126.96C199.462 126.768 199.548 126.587 199.633 126.416C200.38 125.093 201.009 123.973 201.521 123.056C202.054 122.139 202.62 121.424 203.217 120.912C203.836 120.379 204.636 120.059 205.617 119.952C205.041 120.72 204.54 121.413 204.113 122.032C203.686 122.651 203.281 123.28 202.897 123.92C202.513 124.539 202.118 125.221 201.713 125.968C201.308 126.715 200.849 127.6 200.337 128.624C200.38 128.752 200.401 128.837 200.401 128.88C200.401 129.029 200.348 129.157 200.241 129.264C200.156 129.349 200.06 129.392 199.953 129.392C199.505 130.288 199.068 131.195 198.641 132.112C198.236 133.008 197.894 133.84 197.617 134.608C197.361 135.355 197.233 135.941 197.233 136.368C197.233 136.816 197.393 137.04 197.713 137.04C197.905 137.04 198.14 136.965 198.417 136.816C198.886 136.581 199.356 136.251 199.825 135.824C200.316 135.376 200.764 134.917 201.169 134.448C201.404 134.213 201.617 133.989 201.809 133.776C202.001 133.541 202.182 133.307 202.353 133.072C202.417 133.008 202.47 132.976 202.513 132.976C202.641 132.976 202.705 133.061 202.705 133.232C202.705 133.36 202.662 133.467 202.577 133.552C202.214 134.021 201.841 134.491 201.457 134.96C201.073 135.408 200.668 135.845 200.241 136.272C200.156 136.357 200.07 136.453 199.985 136.56C199.9 136.645 199.804 136.731 199.697 136.816C199.249 137.179 198.79 137.488 198.321 137.744C197.873 138 197.468 138.128 197.105 138.128C196.572 138.128 196.209 137.968 196.017 137.648C195.846 137.307 195.761 136.912 195.761 136.464C195.761 136.165 195.782 135.856 195.825 135.536C195.889 135.216 195.964 134.939 196.049 134.704C196.113 134.469 196.188 134.203 196.273 133.904C196.38 133.605 196.497 133.307 196.625 133.008C196.156 133.733 195.622 134.491 195.025 135.28C194.428 136.069 193.788 136.741 193.105 137.296C192.422 137.851 191.708 138.128 190.961 138.128ZM191.153 137.328C191.516 137.328 192.049 137.061 192.753 136.528C193.265 136.123 193.798 135.632 194.353 135.056C194.908 134.459 195.42 133.883 195.889 133.328C196.38 132.752 196.753 132.304 197.009 131.984C197.265 131.365 197.542 130.725 197.841 130.064C198.161 129.381 198.492 128.709 198.833 128.048C198.662 127.963 198.46 127.92 198.225 127.92C197.692 127.92 197.073 128.165 196.369 128.656C195.686 129.125 195.025 129.701 194.385 130.384C193.66 131.152 192.998 131.984 192.401 132.88C191.804 133.755 191.356 134.555 191.057 135.28C190.908 135.6 190.801 135.888 190.737 136.144C190.694 136.379 190.673 136.581 190.673 136.752C190.673 137.136 190.833 137.328 191.153 137.328ZM204.293 138.48C203.504 138.48 202.874 138.256 202.405 137.808C201.936 137.339 201.701 136.688 201.701 135.856C201.701 135.216 201.818 134.544 202.053 133.84C202.309 133.136 202.554 132.581 202.789 132.176C203.28 131.28 203.866 130.459 204.549 129.712C205.253 128.965 205.968 128.368 206.693 127.92C207.44 127.451 208.122 127.216 208.741 127.216C209.317 127.216 209.808 127.376 210.213 127.696C210.64 128.016 210.853 128.443 210.853 128.976C210.853 129.189 210.8 129.435 210.693 129.712C210.586 129.989 210.416 130.277 210.181 130.576C209.328 131.664 208.378 132.517 207.333 133.136C206.309 133.733 205.136 134.181 203.813 134.48C203.728 134.757 203.653 135.035 203.589 135.312C203.525 135.568 203.472 135.813 203.429 136.048C203.408 136.155 203.386 136.261 203.365 136.368C203.365 136.453 203.365 136.549 203.365 136.656C203.365 137.083 203.461 137.392 203.653 137.584C203.866 137.755 204.122 137.84 204.421 137.84C204.89 137.84 205.392 137.723 205.925 137.488C206.458 137.232 206.96 136.944 207.429 136.624C207.898 136.304 208.25 136.048 208.485 135.856C208.72 135.643 208.944 135.429 209.157 135.216C209.392 134.981 209.648 134.725 209.925 134.448C210.138 134.213 210.341 133.989 210.533 133.776C210.725 133.541 210.906 133.307 211.077 133.072C211.141 133.008 211.194 132.976 211.237 132.976C211.365 132.976 211.429 133.072 211.429 133.264C211.429 133.371 211.386 133.467 211.301 133.552C210.917 134.021 210.533 134.491 210.149 134.96C209.765 135.408 209.37 135.845 208.965 136.272C208.496 136.763 207.845 137.253 207.013 137.744C206.202 138.235 205.296 138.48 204.293 138.48ZM204.005 134.064C204.56 133.829 205.2 133.488 205.925 133.04C206.672 132.592 207.386 132.059 208.069 131.44C208.773 130.8 209.349 130.117 209.797 129.392C209.946 129.157 210.021 128.944 210.021 128.752C210.021 128.453 209.85 128.304 209.509 128.304C209.274 128.304 208.986 128.389 208.645 128.56C207.578 129.136 206.661 129.915 205.893 130.896C205.125 131.877 204.496 132.933 204.005 134.064ZM208.724 138.192C209.641 136.485 210.398 134.843 210.996 133.264C211.614 131.664 212.318 130.053 213.108 128.432C213.342 128.005 213.641 127.717 214.004 127.568C214.366 127.397 214.718 127.312 215.06 127.312C215.337 127.312 215.582 127.344 215.796 127.408C215.732 127.557 215.561 127.856 215.284 128.304C215.028 128.731 214.75 129.221 214.452 129.776C214.238 130.16 213.918 130.757 213.492 131.568C213.065 132.357 212.67 133.179 212.308 134.032C212.5 133.755 212.788 133.371 213.172 132.88C213.577 132.368 214.025 131.824 214.516 131.248C215.028 130.672 215.55 130.128 216.084 129.616C216.617 129.104 217.14 128.688 217.652 128.368C218.164 128.027 218.622 127.856 219.028 127.856C219.454 127.856 219.742 127.973 219.892 128.208C220.062 128.421 220.148 128.677 220.148 128.976C220.148 129.36 219.998 129.797 219.7 130.288C219.422 130.757 219.134 131.291 218.836 131.888C218.665 132.208 218.452 132.592 218.196 133.04C217.961 133.467 217.726 133.893 217.492 134.32C217.278 134.725 217.108 135.067 216.98 135.344C217.193 134.939 217.513 134.427 217.94 133.808C218.366 133.168 218.857 132.517 219.412 131.856C219.988 131.173 220.574 130.533 221.172 129.936C221.769 129.317 222.345 128.827 222.9 128.464C223.476 128.08 223.977 127.888 224.404 127.888C224.83 127.888 225.118 127.995 225.268 128.208C225.438 128.421 225.524 128.677 225.524 128.976C225.524 129.381 225.385 129.861 225.108 130.416C224.852 130.971 224.521 131.536 224.116 132.112C223.732 132.688 223.348 133.243 222.964 133.776C222.601 134.309 222.313 134.779 222.1 135.184C221.801 135.781 221.652 136.24 221.652 136.56C221.652 136.901 221.79 137.072 222.068 137.072C222.302 137.072 222.558 136.987 222.836 136.816C223.326 136.581 223.806 136.251 224.276 135.824C224.745 135.376 225.182 134.907 225.588 134.416C225.801 134.16 226.025 133.904 226.26 133.648C226.516 133.371 226.686 133.179 226.772 133.072C226.814 133.008 226.868 132.976 226.932 132.976C227.06 132.976 227.124 133.061 227.124 133.232C227.124 133.339 227.07 133.445 226.964 133.552C226.75 133.829 226.526 134.117 226.292 134.416C226.057 134.693 225.812 134.971 225.556 135.248C225.342 135.525 225.108 135.803 224.852 136.08C224.617 136.336 224.361 136.581 224.084 136.816C223.166 137.669 222.313 138.096 221.524 138.096C221.076 138.096 220.756 137.968 220.564 137.712C220.372 137.435 220.276 137.093 220.276 136.688C220.276 136.133 220.414 135.493 220.692 134.768C220.99 134.021 221.342 133.317 221.748 132.656C221.79 132.592 221.929 132.389 222.164 132.048C222.398 131.707 222.654 131.312 222.932 130.864C223.209 130.416 223.454 129.989 223.668 129.584C223.881 129.179 223.988 128.891 223.988 128.72C223.988 128.571 223.892 128.528 223.7 128.592C223.529 128.656 223.23 128.869 222.804 129.232C222.292 129.68 221.716 130.245 221.076 130.928C220.436 131.611 219.785 132.368 219.124 133.2C218.484 134.011 217.908 134.875 217.396 135.792C217.289 136.005 217.14 136.219 216.948 136.432C216.756 136.645 216.5 136.752 216.18 136.752H216.084C215.956 136.752 215.806 136.709 215.636 136.624C215.486 136.539 215.412 136.347 215.412 136.048C215.412 135.515 215.582 134.885 215.924 134.16C216.265 133.435 216.66 132.699 217.108 131.952C217.556 131.184 217.94 130.491 218.26 129.872C218.366 129.637 218.452 129.424 218.516 129.232C218.601 129.04 218.644 128.891 218.644 128.784C218.644 128.613 218.548 128.56 218.356 128.624C218.185 128.667 217.886 128.869 217.46 129.232C216.948 129.659 216.361 130.224 215.7 130.928C215.06 131.632 214.409 132.389 213.748 133.2C213.086 134.011 212.478 134.811 211.924 135.6C211.369 136.368 210.942 137.04 210.644 137.616C210.558 137.808 210.441 137.925 210.292 137.968C210.164 137.989 209.95 138.011 209.652 138.032C209.438 138.032 209.268 138.032 209.14 138.032C209.012 138.053 208.873 138.107 208.724 138.192ZM228.347 138.224C227.558 138.224 226.961 137.968 226.555 137.456C226.171 136.944 225.979 136.293 225.979 135.504C225.979 134.608 226.214 133.627 226.683 132.56C227.11 131.6 227.654 130.725 228.315 129.936C228.998 129.147 229.734 128.517 230.523 128.048C231.313 127.557 232.07 127.312 232.795 127.312C233.67 127.312 234.31 127.579 234.715 128.112C235.121 128.645 235.323 129.317 235.323 130.128C235.323 131.003 235.099 131.941 234.651 132.944C234.417 133.456 234.075 134.011 233.627 134.608C233.179 135.205 232.667 135.781 232.091 136.336C231.515 136.891 230.897 137.349 230.235 137.712C229.595 138.053 228.966 138.224 228.347 138.224ZM228.955 137.584C229.403 137.584 229.851 137.435 230.299 137.136C230.747 136.816 231.174 136.432 231.579 135.984C231.985 135.536 232.337 135.088 232.635 134.64C232.955 134.171 233.19 133.776 233.339 133.456C233.702 132.773 233.969 132.123 234.139 131.504C234.31 130.864 234.395 130.309 234.395 129.84C234.395 128.816 234.011 128.304 233.243 128.304C232.774 128.304 232.273 128.496 231.739 128.88C231.227 129.243 230.726 129.733 230.235 130.352C229.745 130.971 229.318 131.664 228.955 132.432C228.187 133.968 227.803 135.216 227.803 136.176C227.803 136.944 228.049 137.392 228.539 137.52C228.603 137.541 228.667 137.563 228.731 137.584C228.795 137.584 228.87 137.584 228.955 137.584Z" fill="black"/>
<mask id="mask0_189_95" style="mask-type:luminance" maskUnits="userSpaceOnUse" x="0" y="0" width="335" height="131">
<path d="M0 130.278L335 130.278L335 0.000305176L1.13892e-05 0.000275889L0 130.278Z" fill="white"/>
<path d="M0.25 130.028L0.250011 0.250703L334.75 0.250732L334.75 130.028L0.25 130.028Z" stroke="#FFA431" stroke-opacity="0.3" stroke-width="0.5"/>
</mask>
<g mask="url(#mask0_189_95)">
<path d="M283.78 -17.5407C235.498 -13.8511 202.186 81.5332 117.522 81.8263C32.8603 82.1194 -6.24864 46.842 -48.7332 46.6513" stroke="#FFA431" stroke-opacity="0.3" stroke-width="0.5"/>
<path d="M189.224 -17.9573C160.244 -4.55493 174.691 86.9326 118.008 88.0563C61.3235 89.1799 11.9622 58.2529 -24.4248 58.0924" stroke="#FFA431" stroke-opacity="0.3" stroke-width="0.5"/>
<path d="M251.569 -10.8361C221.812 -8.8052 200.849 48.0564 147.94 48.2797C95.033 48.5031 96.1264 31.995 44.3131 31.995C-7.50259 31.995 -33.0905 48.2309 -59.3159 48.2797" stroke="#FFA431" stroke-opacity="0.3" stroke-width="0.5"/>
<path d="M183.608 -4.80608C143.482 4.93916 127.721 112.6 67.9399 113.1C8.15865 113.6 -15.4914 57.3224 -47.7282 55.7777" stroke="#FFA431" stroke-opacity="0.3" stroke-width="0.5"/>
<path d="M178.52 -19.0809C153.048 -10.5151 161.947 64.041 110.431 64.1015C58.9157 64.162 11.0526 9.16149 -25.7439 8.08204" stroke="#FFA431" stroke-opacity="0.3" stroke-width="0.5"/>
</g>
<g filter="url(#filter0_d_189_95)">
<path d="M0 178.463V204H318V168.248C318 168.248 285 197.531 195 197.531C132.29 197.531 131 153.266 80 148.5C39.2 144.686 15.5 163.481 0 178.463Z" fill="url(#paint0_linear_189_95)" fill-opacity="0.5" shape-rendering="crispEdges"/>
</g>
<g filter="url(#filter1_d_189_95)">
<path d="M0 204V181.28C15.4979 165.412 36.1952 152.718 76.9898 156.757C127.983 161.806 136.26 210.062 238.468 194.263C310.265 183.165 317.4 179.182 317.958 178.259V178.034C317.958 178.034 318.053 178.103 317.958 178.259V204H0Z" fill="url(#paint1_linear_189_95)"/>
</g>
</g>
<defs>
<filter id="filter0_d_189_95" x="-30" y="117" width="378" height="116" filterUnits="userSpaceOnUse" color-interpolation-filters="sRGB">
<feFlood flood-opacity="0" result="BackgroundImageFix"/>
<feColorMatrix in="SourceAlpha" type="matrix" values="0 0 0 0 0 0 0 0 0 0 0 0 0 0 0 0 0 0 127 0" result="hardAlpha"/>
<feOffset dy="-1"/>
<feGaussianBlur stdDeviation="15"/>
<feComposite in2="hardAlpha" operator="out"/>
<feColorMatrix type="matrix" values="0 0 0 0 1 0 0 0 0 1 0 0 0 0 1 0 0 0 1 0"/>
<feBlend mode="normal" in2="BackgroundImageFix" result="effect1_dropShadow_189_95"/>
<feBlend mode="normal" in="SourceGraphic" in2="effect1_dropShadow_189_95" result="shape"/>
</filter>
<filter id="filter1_d_189_95" x="-30" y="125" width="378" height="108" filterUnits="userSpaceOnUse" color-interpolation-filters="sRGB">
<feFlood flood-opacity="0" result="BackgroundImageFix"/>
<feColorMatrix in="SourceAlpha" type="matrix" values="0 0 0 0 0 0 0 0 0 0 0 0 0 0 0 0 0 0 127 0" result="hardAlpha"/>
<feOffset dy="-1"/>
<feGaussianBlur stdDeviation="15"/>
<feComposite in2="hardAlpha" operator="out"/>
<feColorMatrix type="matrix" values="0 0 0 0 1 0 0 0 0 1 0 0 0 0 1 0 0 0 1 0"/>
<feBlend mode="normal" in2="BackgroundImageFix" result="effect1_dropShadow_189_95"/>
<feBlend mode="normal" in="SourceGraphic" in2="effect1_dropShadow_189_95" result="shape"/>
</filter>
<linearGradient id="paint0_linear_189_95" x1="11.5" y1="162.8" x2="307.146" y2="241.414" gradientUnits="userSpaceOnUse">
<stop stop-color="#FFC337"/>
<stop offset="1" stop-color="#FFA431"/>
</linearGradient>
<linearGradient id="paint1_linear_189_95" x1="11.4985" y1="160.363" x2="309.245" y2="235.104" gradientUnits="userSpaceOnUse">
<stop stop-color="#FFC337"/>
<stop offset="1" stop-color="#FFA431"/>
</linearGradient>
<clipPath id="clip0_189_95">
<rect width="318" height="204" fill="white"/>
</clipPath>
</defs>
</svg>
