<svg xmlns="http://www.w3.org/2000/svg" xmlns:xlink="http://www.w3.org/1999/xlink" version="1.1" style="" xml:space="preserve" width="846.7142859737892" height="406.4285628649651"><rect id="backgroundrect" width="100%" height="100%" x="0" y="0" fill="none" stroke="none" class="selected" style=""/>
<g class="currentLayer" style=""><title>Layer 1</title><g id="Calque_2">
</g><g id="Calque_1" class="">
	<g id="svg_1">
		<ellipse transform="matrix(3.203729121338688,-0.5199446917621902,0.5199446917621902,3.203729121338688,-1406.727726092955,-613.276092424039) " cx="461.9699321228546" cy="295.6375946093788" rx="6.650000095367433" ry="6.650000095367433" id="svg_2"/>
		<ellipse transform="matrix(3.203729121338688,-0.5199446917621902,0.5199446917621902,3.203729121338688,-1401.6863397651514,-524.6534346155964) " cx="632.1099467712922" cy="299.6575836230506" rx="6.650000095367433" ry="6.650000095367433" id="svg_3"/>
		<path d="M179.21102155902037,173.61651246467557 c-2.5640218882155463,-4.186820551643104 -5.906987134876315,-8.016625397332144 -9.931527820176663,-11.359590643992917 c-3.9920847120317973,-3.3105092733922215 -8.990304595388679,-5.874531161607765 -14.897291730264996,-7.594697744840978 l-0.9412232247879846,-0.29210375941696093 v-1.168415037667843 v-1.168415037667843 l0.6815754386395754,-0.3894716792226151 c7.821889557720837,-4.381556391254411 13.793788639134256,-10.645559232084791 17.818329324434604,-18.662184629416934 c4.024540685300348,-8.049081370600696 6.069267001219073,-16.520090393692556 6.069267001219073,-25.153379283127173 c0,-8.828024729045923 -1.7526225565017646,-16.682370260035313 -5.192955722968191,-23.36830075335686 c-3.4403331664664263,-6.685930493321544 -8.276273183480553,-12.365725815318003 -14.41045213123673,-16.844650126378067 c-6.166634921024726,-4.511380284328616 -13.6315087727915,-7.9841694240635945 -22.199885715689014,-10.288543526130727 c-8.633288889434617,-2.336830075335686 -18.305168923462872,-3.5052451130035296 -28.78844828920491,-3.5052451130035296 c0,0 -44.82169908386919,0 -70.65665380563594,0 v209.08137979600676 c25.834954721766746,0.032455973268551215 70.65665380563594,-0.2271918128798585 70.65665380563594,-0.2271918128798585 c10.320999499399278,0 20.414807185918697,-1.1359590643992916 30.02177527340985,-3.375421219929324 c9.542056140954049,-2.2070061822614817 18.077977110583014,-5.7771632418021115 25.315659149469926,-10.61310325881624 c7.172770092349813,-4.771028070477025 13.014845280689027,-11.16485480438161 17.331489725406335,-18.921832415565344 c4.3166444447173085,-7.756977611183736 6.491194653710238,-17.428857645211988 6.491194653710238,-28.78844828920491 c0,-4.608748204134269 -0.5842075188339221,-9.314864328074192 -1.7526225565017646,-14.020980452014115 C183.68994587008046,182.3147133006472 181.77504344723582,177.80333301631867 179.21102155902037,173.61651246467557 zM80.05802322359636,95.59235272707849 h27.068281705971692 c7.270138012155467,0 12.625373601466412,1.947358396113072 15.935882874858635,5.7771632418021115 c3.245597326855119,3.797348872420489 4.900851963551229,8.341185130017656 4.900851963551229,13.566596826254397 c0,5.387691562579498 -1.5903426901590088,10.256087552862176 -4.706116123939923,14.41045213123673 c-3.2131413535865683,4.284188471448757 -8.341185130017656,6.4587386804416855 -15.25430743621906,6.4587386804416855 h-27.944592984222574 V95.59235272707849 zM130.33232581658223,213.86191931767894 c-3.9920847120317973,4.738572097208474 -9.996439766713767,7.140314119081262 -17.883241270971705,7.140314119081262 h-32.39106132201409 v-46.412041774028204 h32.68316508143105 c7.854345530989388,0 13.826244612402807,2.3043741020671367 17.72096140462895,6.81575438639575 c3.8298048456890403,4.478924311060064 5.7771632418021115,9.899071846908113 5.7771632418021115,16.098162741201392 C136.2393129514586,203.6707437113539 134.2594985820769,209.18825916700763 130.33232581658223,213.86191931767894 z" id="svg_4"/>
		<path d="M253.40537645092832,224.1829188170783 c-2.6289338347526465,0 -4.771028070477025,-2.1420942357243793 -4.771028070477025,-4.771028070477025 v-89.7732220608126 h-43.26381236697874 c0,1.525430743621906 0,85.26184177648398 0,85.26184177648398 c0,10.807839098427547 1.3631508772791503,19.441127987862163 4.121908605106001,25.834954721766746 c2.7587577278268514,6.393826733904585 6.3289147873674825,11.327134670724366 10.742927151890443,14.735011863922239 c4.4140123645229625,3.407877193197875 9.412232247879846,5.614883375459357 14.9622036768021,6.621018546784443 c5.257867669505293,0.9412232247879846 19.668319800742022,0.9087672515194347 27.52266533173141,0.9087672515194347 v-38.752432082650124 c-0.06491194653710246,0 -0.129823893074205,0 -0.19473583961130753,0 H253.40537645092832 z" id="svg_5"/>
		<path d="M643.948102791405,173.38932065179563 c-3.148229407049466,-8.633288889434617 -7.464873851766774,-15.968338848127187 -12.917477360883373,-22.037605849346264 c-5.4526035091166,-6.069267001219073 -11.878886216289736,-10.710471178621892 -19.213936174982305,-13.956068505477011 c-7.335049958692569,-3.245597326855119 -15.286763409487614,-4.8683959902826786 -23.822684379116573,-4.8683959902826786 c-7.172770092349813,0 -13.11221320049468,0.9412232247879846 -17.818329324434604,2.8236696743639538 c-4.706116123939923,1.8824464495759694 -8.503464996360412,4.024540685300348 -11.392046617261467,6.393826733904585 c-3.375421219929324,2.693845781289749 -6.166634921024726,5.74470726853356 -8.373641103286207,9.120128488462884 h-3.1157734337809146 c-2.499109941678443,-6.685930493321544 -6.653474520052994,-12.2359019222438 -11.16485480438161,-15.708691061978776 c-4.511380284328616,-3.5052451130035296 -9.639424060759703,-5.7771632418021115 -15.384131329293265,-6.7832984131271985 c-5.387691562579498,-0.9736791980565351 -14.9622036768021,-1.07104711786219 -20.73936691860421,-0.9736791980565351 v39.98575906685507 c3.4403331664664263,0.09736791980565375 7.5297857983038785,0.29210375941696093 9.347320301342743,1.006135171325087 v150.98518764530013 h44.33485948484092 v-65.39878613613064 c2.4017420218727885,3.083317460512363 5.387691562579498,5.809619215070663 8.957848622120128,8.211361236943452 c2.8885816209010566,2.0447263159187266 6.653474520052994,3.9596287387632456 11.262222724187263,5.7771632418021115 c4.608748204134269,1.7850785297703164 9.996439766713767,2.693845781289749 16.130618714469943,2.693845781289749 c8.698200835971718,0 16.649914286766762,-1.655254636696111 23.822684379116573,-4.998219883356883 c7.172770092349813,-3.342965246660772 13.306949040105987,-8.016625397332144 18.434992816537076,-14.085892398551216 c5.128043776431088,-6.069267001219073 9.152584461731436,-13.274493066837437 12.041166082632493,-21.648134170123647 c2.8885816209010566,-8.373641103286207 4.349100417985859,-17.591137511554745 4.349100417985859,-27.652489224805613 C648.6866748886133,191.6295776287214 647.0963321984542,182.02260954123028 643.948102791405,173.38932065179563 zM597.0492214183483,224.60484646956945 c-4.706116123939923,5.906987134876315 -10.87275104496465,8.860480702314476 -18.564816709611282,8.860480702314476 c-3.407877193197875,0 -6.718386466590096,-0.6491194653710243 -9.866615873639562,-1.9149024228445206 c-3.148229407049466,-1.2982389307420479 -5.939443108144868,-3.2131413535865683 -8.341185130017656,-5.7771632418021115 c-2.4017420218727885,-2.5640218882155463 -4.3166444447173085,-5.842075188339215 -5.7771632418021115,-9.769247953833908 c-1.460518797084804,-3.9596287387632456 -2.1745502089929305,-8.568376942897514 -2.1745502089929305,-13.89115655893991 c0,-4.446468337791513 0.5517515455653709,-8.665744862703168 1.655254636696111,-12.592917628197863 c1.1035030911307413,-3.9596287387632456 2.7263017545583,-7.432417878498223 4.8683959902826786,-10.418367419204932 c2.1420942357243793,-3.0184055139752606 4.771028070477025,-5.387691562579498 7.951713450795042,-7.205226065618365 c3.148229407049466,-1.8175345030388668 6.7832984131271985,-2.693845781289749 10.87275104496465,-2.693845781289749 c7.335049958692569,0 13.566596826254397,2.7263017545583 18.694640602685485,8.211361236943452 c5.128043776431088,5.485059482385152 7.692065664646632,13.371860986643089 7.692065664646632,23.66040451277382 C604.1246235908924,210.84351380370373 601.7553375422884,218.69785933469308 597.0492214183483,224.60484646956945 z" id="svg_6"/>
		<path d="M483.7454187378361,154.69468004911016 c-2.239462155530033,-6.3289147873674825 -5.257867669505293,-11.45695856379857 -9.087672515194333,-15.384131329293265 c-3.8298048456890403,-3.927172765494694 -8.373641103286207,-6.750842439858648 -13.566596826254397,-8.438553049823309 c-5.225411696236741,-1.7201665832332131 -10.807839098427547,-2.5640218882155463 -16.779738179840965,-2.5640218882155463 c-4.965763910088332,0 -9.606968087491152,0.6491194653710243 -13.956068505477011,1.9149024228445206 c-4.349100417985859,1.2657829574734971 -8.341185130017656,2.98594954070671 -11.911342189558287,5.128043776431088 c-3.6026130328091845,2.1420942357243793 -6.7832984131271985,4.5438362575971665 -9.606968087491152,7.172770092349813 c-2.4017420218727885,2.239462155530033 -4.381556391254411,4.5438362575971665 -5.9718990814134205,6.848210359664301 h-1.947358396113072 c-3.375421219929324,-6.880666332932853 -8.081537343869247,-12.106078029169593 -14.118348371819767,-15.578867168904571 c-6.393826733904585,-3.6675249793462843 -13.793788639134256,-5.517515455653703 -22.16742974242046,-5.517515455653703 c-5.128043776431088,0 -9.769247953833908,0.7789433584452281 -13.956068505477011,2.3043741020671367 c-4.186820551643104,1.525430743621906 -7.8868015042579405,3.407877193197875 -11.13239883111306,5.6473393487279075 c-3.245597326855119,2.2070061822614817 -6.036811027950521,4.706116123939923 -8.341185130017656,7.432417878498223 c-1.7201665832332131,2.0447263159187266 -3.407877193197875,3.9596287387632456 -4.803484043745577,5.71225129526501 h-1.2982389307420479 c0,-4.576292230865718 0,-16.942018046183723 0,-19.765687720547675 h-42.19276524911655 c-0.032455973268551215,0.3894716792226151 0,133.29668221393973 0,133.29668221393973 h44.33485948484092 v-55.46725831595399 c0,-4.608748204134269 0.3894716792226151,-9.217496408268538 1.1359590643992916,-13.826244612402807 c0.7789433584452281,-4.608748204134269 2.0771822891872778,-8.763112782508822 3.9596287387632456,-12.430637761855106 c1.8824464495759694,-3.6675249793462843 4.446468337791513,-6.685930493321544 7.692065664646632,-9.087672515194333 c3.245597326855119,-2.4017420218727885 7.432417878498223,-3.927172765494694 12.560461654929309,-3.570157059540631 c4.284188471448757,0.29210375941696093 10.256087552862176,4.478924311060064 10.256087552862176,16.649914286766762 v77.76451195144865 h44.33485948484092 v-55.46725831595399 c0,-4.965763910088332 0.42192765249116565,-9.769247953833908 1.2982389307420479,-14.475364077773833 c0.8438553049823313,-4.706116123939923 2.2719181287985846,-8.828024729045923 4.219276524911654,-12.430637761855106 c1.947358396113072,-3.570157059540631 4.576292230865718,-6.491194653710238 7.821889557720837,-8.698200835971718 c3.245597326855119,-2.2070061822614817 7.270138012155467,-3.342965246660772 12.041166082632493,-3.342965246660772 c7.464873851766774,0 10.256087552862176,9.185040434999987 10.256087552862176,16.649914286766762 v77.76451195144865 h44.33485948484092 v-85.16447385667833 C487.0883839844968,168.7156605011242 485.98488089336604,161.02359483647757 483.7454187378361,154.69468004911016 z" id="svg_7"/>
		<g id="svg_8">
			<path d="M733.2344852531893,378.67335157538196 c-43.36118028678439,0 -78.64082322969954,-35.279642942915146 -78.64082322969954,-78.64082322969954 h43.19890042044163 c0,19.538495907667816 15.903426901590084,35.4419228092579 35.4419228092579,35.4419228092579 c19.538495907667816,0 35.4419228092579,-15.903426901590084 35.4419228092579,-35.4419228092579 h43.19890042044163 C811.8428525096201,343.3937086324669 776.5956655399734,378.67335157538196 733.2344852531893,378.67335157538196 z" id="svg_9"/>
		</g>
		<path d="M757.6089211778708,185.3980307611596 v22.84900518106004 c0,13.404316959911643 -10.9052070182332,24.30952397814484 -24.30952397814484,24.30952397814484 c-13.404316959911643,0 -24.24461203160774,-10.9052070182332 -24.24461203160774,-24.30952397814484 v-106.3257684277737 c0,-10.807839098427547 -1.3631508772791503,-19.441127987862163 -4.121908605106001,-25.834954721766746 c-2.7587577278268514,-6.393826733904585 -6.3289147873674825,-11.327134670724366 -10.742927151890443,-14.735011863922239 c-4.4140123645229625,-3.407877193197875 -9.412232247879846,-5.614883375459357 -14.9622036768021,-6.621018546784443 c-5.257867669505293,-0.9412232247879846 -33.39719649333917,-0.9087672515194347 -41.251542024328565,-0.9087672515194347 v38.752432082650124 c0.06491194653710246,0 13.858700585671357,0 13.923612532208459,0 h9.152584461731436 c2.6289338347526465,0 4.771028070477025,2.1420942357243793 4.771028070477025,4.771028070477025 v110.83714871210232 c0,37.22700133902821 30.281423059558257,67.50842439858647 67.50842439858647,67.50842439858647 c37.22700133902821,0 67.50842439858647,-30.281423059558257 67.50842439858647,-67.50842439858647 v-22.84900518106004 H757.6089211778708 z" id="svg_10"/>
	</g>
</g></g></svg>