<?xml version="1.0" encoding="UTF-8"?> <svg xmlns="http://www.w3.org/2000/svg" width="77" height="38" viewBox="0 0 77 38" fill="none"><path d="M7.08997 0V37.2064H0V0H7.08997Z" fill="#16273D"></path><path d="M39.1261 24.0209C39.1261 31.9719 32.8703 37.9237 24.6064 37.9237C16.3425 37.9237 10.0866 31.9719 10.0866 24.0209C10.0866 16.0699 16.327 10.0723 24.6064 10.0723C32.8857 10.0723 39.1261 16.0241 39.1261 24.0361V24.0209ZM17.1766 24.0209C17.1766 28.416 20.3895 31.4682 24.6064 31.4682C28.8233 31.4682 32.0362 28.416 32.0362 24.0209C32.0362 19.6257 28.8233 16.5124 24.6064 16.5124C20.3895 16.5124 17.1766 19.5646 17.1766 24.0209Z" fill="#16273D"></path><path d="M68.1348 7.41686V14.3454H76.2442V20.465H68.1348V28.1261C68.1348 30.0795 69.0307 31.4072 71.2241 31.4072H76.2288V37.5269H71.1623C64.5203 37.5269 61.0294 34.1389 61.0294 29.2401V7.41686H68.1348Z" fill="#16273D"></path><path d="M42.2309 36.9012V9.14135C42.2309 4.24256 45.7218 0.854617 52.3639 0.854617H57.4303V6.97429H52.4256C50.2322 6.97429 49.3363 8.302 49.3363 10.2554V14.4369H57.4458V20.5566H49.3363V36.9164H42.2464L42.2309 36.9012Z" fill="#16273D"></path></svg> 