<svg width="610" height="610" viewBox="0 0 610 610" fill="none" xmlns="http://www.w3.org/2000/svg">
<path d="M305 0C473.447 0 610 136.553 610 305C610 473.447 473.447 610 305 610C136.553 610 0 473.447 0 305C0 136.553 136.553 0 305 0ZM305.5 9C141.748 9 9 141.748 9 305.5C9 469.252 141.748 602 305.5 602C469.252 602 602 469.252 602 305.5C602 141.748 469.252 9 305.5 9Z" fill="url(#paint0_linear_13_125)"/>
<path d="M305 19C462.953 19 591 147.047 591 305C591 462.953 462.953 591 305 591C147.047 591 19 462.953 19 305C19 147.047 147.047 19 305 19ZM305.469 22.9688C149.448 22.9688 22.9688 149.448 22.9688 305.469C22.9688 461.489 149.448 587.969 305.469 587.969C461.489 587.969 587.969 461.489 587.969 305.469C587.969 149.448 461.489 22.9689 305.469 22.9688Z" fill="url(#paint1_linear_13_125)"/>
<path d="M205.78 202.338C163.078 200.229 101.868 185.311 107.591 185.863C182.716 193.112 236.093 193.771 250.591 193.771C265.089 193.771 282.486 193.903 286.176 204.973C289.867 216.044 266.187 226.72 253.886 230.674L220.278 244.513C213.688 247.368 200.245 255.32 199.19 264.282C198.136 273.244 227.307 280.318 242.024 282.734C324.398 297.891 305.946 329.757 294.084 342.043C257.181 380.264 108.6 396.079 118.135 431.665C130.495 477.794 288.812 487.679 324.398 487.679C144.626 497.695 93.5326 454.51 90.4573 431.665C85.1854 408.468 126.702 385.536 153.061 376.31C196.554 361.087 270.097 341.779 279.586 327.545C289.076 313.311 258.499 303.162 242.024 299.209C221.596 294.306 179.816 287.215 181.397 268.236C182.979 249.257 205.78 237.923 216.983 234.628C224.89 231.992 245.187 224.875 263.112 217.494C281.036 210.114 270.58 206.072 263.112 204.973C261.794 204.973 248.482 204.446 205.78 202.338Z" fill="url(#paint2_radial_13_125)"/>
<circle cx="299.558" cy="243.839" r="13.1797" fill="#B3A235"/>
<circle cx="329.871" cy="243.839" r="13.1797" fill="#B3A235"/>
<circle cx="361.502" cy="243.839" r="13.1797" fill="#B3A235"/>
<circle cx="377.318" cy="270.198" r="13.1797" fill="#B3A235"/>
<circle cx="361.502" cy="297.876" r="13.1797" fill="#B3A235"/>
<circle cx="329.871" cy="297.876" r="13.1797" fill="#B3A235"/>
<circle cx="314.056" cy="270.198" r="13.1797" fill="#B3A235"/>
<circle cx="345.687" cy="324.235" r="13.1797" fill="#B3A235"/>
<circle cx="345.687" cy="270.198" r="13.1797" fill="#B3A235"/>
<path d="M305.488 207.594C314.684 194.63 335.467 176.741 362.087 177.698C374.368 167.768 388.684 161.893 398.405 159.488C399.723 159.163 399.064 163.816 398.405 164.101C387.808 168.694 379.073 173.722 371.908 178.897C381.327 180.86 391.331 185.29 401.7 193.097C389.808 187.626 377.73 184.312 365.605 183.813C345.972 200.383 341.112 217.512 341.733 226.046C341.733 227.364 337.779 227.364 337.779 226.046C337.552 208.382 344.938 194.544 355.057 184.105C338.425 185.731 321.782 192.998 305.488 207.594Z" fill="#B3A235"/>
<path d="M385.226 213.525C385.226 213.525 376.878 216.82 374.682 216.161C375.736 200.873 386.544 195.733 391.815 195.074C400.382 194.003 403.677 193.756 403.677 193.756C393.133 175.304 406.972 163.442 408.949 164.101C410.926 168.055 410.926 168.714 412.903 170.691C416.198 161.465 424.765 156.853 435.309 156.853C436.89 164.76 431.135 175.963 428.06 180.576C440.185 167.396 457.714 173.327 464.963 177.94C461.888 183.212 453.497 193.888 444.534 194.415C435.572 194.942 434.21 196.392 434.65 197.051C451.124 201.664 457.714 201.005 468.258 236.59C425.424 239.226 424.765 214.184 424.106 218.138C423.447 222.092 424.106 222.751 428.06 231.318C431.223 238.171 428.06 249.111 426.083 253.724C403.677 247.134 404.995 226.046 404.995 226.046C399.196 240.28 392.035 246.035 389.18 247.134C376 230.659 385.226 213.525 385.226 213.525Z" fill="#B3A235"/>
<path d="M468.258 243.839C479.241 258.995 495.013 296.558 470.235 325.553C464.307 345.618 454.789 362.883 442.728 377.613C447.724 376.515 458.11 373.395 459.691 369.705C461.668 365.092 472.871 330.825 519 309.078C515.705 340.051 488.687 369.705 460.35 371.682C456.396 375.636 445.853 378.492 441.24 379.59L442.728 377.613C431.102 391.813 417.113 403.657 401.7 413.385L401.701 413.384L414.88 413.198C414.88 413.198 448.489 377.613 505.161 385.521C467.599 422.424 443.876 417.811 416.857 415.834H397.747L398.928 415.102C377.078 428.392 352.537 437.545 327.894 443.22C328.421 443.98 331.515 444.586 333.825 445.488C342.573 445.754 351.962 445.805 362.161 448.433C362.161 437.889 387.203 434.346 397.088 441.535C418.834 457.35 405.874 466.498 396.429 467.776C384.021 456.571 372.661 451.137 362.161 448.433C351.962 445.805 342.573 445.754 333.825 445.488C331.515 444.586 328.421 443.98 327.894 443.22C284.03 453.322 239.843 452.402 209.936 444.17C233.046 447.558 264.929 448.856 298.899 444.245C299.099 444.217 299.299 444.19 299.499 444.162C300.575 443.712 303.451 441.648 310.76 432.968C310.76 432.968 308.783 394.088 356.889 358.502C352.955 409.651 328.357 424.475 312.315 434.143L312.078 434.286L304.521 443.429C324.113 440.407 344.269 435.374 363.731 427.612L353.595 430.991L348.982 432.309L358.866 418.47C352.936 374.318 387.203 336.097 403.677 318.963C404.995 367.069 376.659 407.926 360.843 419.788L353.595 430.991L363.731 427.612C364.867 427.159 366 426.697 367.13 426.225L387.203 416.493C392.255 412.32 396.429 397.382 396.429 397.382C391.157 392.638 391.596 382.226 392.475 377.613C393.793 371.682 399.724 359.82 407.631 359.82C415.539 359.82 415.759 373.659 414.221 381.567C414.221 381.567 412.244 394.747 398.406 397.382C396.824 404.763 392.845 411.88 391.053 414.516C416.637 399.949 439.746 379.511 457.055 351.301C456.528 337.594 453.76 331.484 452.442 329.507C436.627 330.825 428.06 299.194 440.815 293.889C446.512 292.948 454.93 300.676 457.055 307.76C461.009 323.576 455.078 327.53 455.078 327.53C455.078 327.53 458.462 342.514 458.901 348.225C463.054 341.151 466.848 333.603 470.235 325.553C470.01 325.259 469.791 324.96 469.576 324.656C455.169 304.268 462.631 262.452 468.258 243.839Z" fill="#B3A235"/>
<path d="M432.014 371.023V382.885L430.037 384.862V371.682C430.037 371.682 413.562 366.41 413.562 347.959C413.562 329.507 422.788 322.917 422.788 322.917C422.788 322.917 424.765 321.599 427.401 321.599C432.014 321.599 440.751 328.189 442.728 345.982C444.31 360.216 436.187 369.046 432.014 371.023Z" fill="#B3A235"/>
<path d="M263.972 436.922C263.445 437.976 256.284 443.951 252.77 446.806H246.839C250.529 446.638 259.36 439.268 263.313 435.604C263.313 434.286 255.01 424.533 266.608 409.244C278.207 393.956 290.332 393.429 295.604 396.065C300.217 398.7 302.343 410.694 293.627 424.401C282.732 441.535 264.631 435.604 263.972 436.922Z" fill="#B3A235"/>
<g filter="url(#filter0_f_13_125)">
<path d="M470.894 318.235C470.911 315.387 471.905 292.569 472.18 279.162C472.189 278.738 472.708 278.635 472.843 279.037C476.994 291.4 472.241 321.537 470.929 318.398C470.908 318.348 470.894 318.289 470.894 318.235Z" fill="white" fill-opacity="0.9"/>
<path d="M495.762 338.223C491.674 342.188 473.512 359.76 463.304 368.91C463.123 369.072 463.346 369.341 463.552 369.213C484.745 356.026 493.805 342.238 496.027 338.436C496.141 338.242 495.923 338.066 495.762 338.223Z" fill="white" fill-opacity="0.9"/>
<path d="M465.921 400.581C451.023 408.608 429.808 411.813 419.937 413.139C419.697 413.171 419.603 413.027 419.812 412.906C423.284 410.887 454.165 402.481 465.795 400.231C466.016 400.188 466.119 400.474 465.921 400.581Z" fill="white" fill-opacity="0.9"/>
<path d="M265.949 425.719C265.577 419.588 283.742 401.995 283.742 400.677C282.424 400.018 262.654 408.585 265.949 425.719Z" fill="white" fill-opacity="0.9"/>
<path d="M337.583 392.783C334.088 398.228 320.813 418.95 315.27 428.092C315.155 428.282 315.382 428.479 315.553 428.338C328.034 417.99 335.872 398.461 337.908 392.939C337.989 392.719 337.71 392.585 337.583 392.783Z" fill="white" fill-opacity="0.9"/>
<path d="M384.566 364.433C378.048 373.914 366.913 400.266 361.7 414.746C361.534 415.206 362.12 415.452 362.346 415.018C373.656 393.323 390.13 358.869 384.566 364.433Z" fill="white" fill-opacity="0.9"/>
<path d="M411.568 370.198C411.266 374.83 407.08 386.614 404.9 391.054C404.762 391.335 405.089 391.632 405.344 391.451C414.164 385.194 413.099 372.353 411.905 370.057C411.788 369.831 411.584 369.944 411.568 370.198Z" fill="white" fill-opacity="0.9"/>
<path d="M436.718 362.433C437.018 357.544 437.754 340.492 434.166 331.337C434.04 331.016 434.481 330.724 434.707 330.984C445.205 343.131 439.281 358.252 437.236 362.572C437.098 362.862 436.698 362.753 436.718 362.433Z" fill="white" fill-opacity="0.9"/>
<path d="M443.314 323.155C437.666 318.62 436.213 308.25 437.041 303.517C437.094 303.219 437.47 303.225 437.544 303.519C439.933 312.951 441.78 318.564 443.602 322.93C443.68 323.116 443.471 323.281 443.314 323.155Z" fill="white" fill-opacity="0.9"/>
<path d="M401.773 451.183C394.346 440.364 381.672 440.598 374.892 442.391C374.571 442.475 374.633 442.908 374.964 442.926C390.102 443.735 393.211 447.337 401.408 451.593C401.677 451.733 401.945 451.433 401.773 451.183Z" fill="white" fill-opacity="0.9"/>
<path d="M377.977 470.53C369.867 467.996 346.894 456.324 338.107 449.571C337.856 449.378 338.039 449.022 338.342 449.113C350.331 452.714 377.977 470.53 377.977 470.53Z" fill="white" fill-opacity="0.9"/>
</g>
<path d="M343.71 130.059C301.007 149.038 252.989 148.511 234.318 145.875C234.318 134.013 234.318 91.8381 287.037 87.2252C321.963 84.1692 337.12 112.926 343.71 130.059Z" fill="#E6B55A"/>
<path d="M186.212 156.419C238.272 164.986 329.212 168.94 377.318 124.128C318.009 159.714 186.212 156.419 186.212 156.419Z" fill="#E6B55A"/>
<defs>
<filter id="filter0_f_13_125" x="265.079" y="278.284" width="231.48" height="192.746" filterUnits="userSpaceOnUse" color-interpolation-filters="sRGB">
<feFlood flood-opacity="0" result="BackgroundImageFix"/>
<feBlend mode="normal" in="SourceGraphic" in2="BackgroundImageFix" result="shape"/>
<feGaussianBlur stdDeviation="0.25" result="effect1_foregroundBlur_13_125"/>
</filter>
<linearGradient id="paint0_linear_13_125" x1="56.5" y1="134.5" x2="558" y2="459.5" gradientUnits="userSpaceOnUse">
<stop stop-color="#EAA979"/>
<stop offset="0.555964" stop-color="#BF6F41"/>
<stop offset="1" stop-color="#B56036"/>
</linearGradient>
<linearGradient id="paint1_linear_13_125" x1="71.9803" y1="145.121" x2="542.239" y2="449.875" gradientUnits="userSpaceOnUse">
<stop stop-color="#EAA979"/>
<stop offset="0.555964" stop-color="#BF6F41"/>
<stop offset="1" stop-color="#B56036"/>
</linearGradient>
<radialGradient id="paint2_radial_13_125" cx="0" cy="0" r="1" gradientUnits="userSpaceOnUse" gradientTransform="translate(207.3 191.12) rotate(90.0194) scale(298.041 230.324)">
<stop stop-color="#1A5759"/>
<stop offset="1" stop-color="#1A5759"/>
</radialGradient>
</defs>
</svg>
